<svg width="147" height="140" viewBox="0 0 147 140" fill="none" xmlns="http://www.w3.org/2000/svg">
<path d="M73.2314 0L109.439 27.1646L146.463 53.2057L131.816 96.0354L118.491 139.294L73.2314 138.6L27.9719 139.294L14.6463 96.0354L0 53.2057L37.0238 27.1646L73.2314 0Z" fill="#C4C4C4"/>
<path d="M73.2314 0L109.439 27.1646L146.463 53.2057L131.816 96.0354L118.491 139.294L73.2314 138.6L27.9719 139.294L14.6463 96.0354L0 53.2057L37.0238 27.1646L73.2314 0Z" fill="url(#paint0_linear)"/>
<path d="M56.25 72.75V66.5H68.75V41.5H62.5V35.25H68.75V29H81.25V66.5H93.75V72.75H56.25Z" fill="white"/>
<path d="M20 98.25V84.5H36.5V87.25H39.25V98.25H33.75V87.25H31V98.25H25.5V87.25H22.75V98.25H20ZM44.75 98.25V95.5H42V87.25H44.75V84.5H58.5V87.25H61.25V95.5H58.5V98.25H44.75ZM47.5 95.5H55.75V87.25H47.5V95.5ZM64 98.25V84.5H80.5V87.25H83.25V98.25H77.75V87.25H69.5V98.25H64ZM94.25 98.25V87.25H88.75V84.5H94.25V79H99.75V84.5H105.25V87.25H99.75V98.25H94.25ZM108 98.25V79H113.5V84.5H124.5V87.25H127.25V98.25H121.75V87.25H113.5V98.25H108Z" fill="white"/>
<defs>
<linearGradient id="paint0_linear" x1="73.2314" y1="0" x2="73.2313" y2="154" gradientUnits="userSpaceOnUse">
<stop stop-color="#FFE600"/>
<stop offset="1" stop-color="#9C6700"/>
</linearGradient>
</defs>
</svg>
