<svg width="148" height="140" viewBox="0 0 148 140" fill="none" xmlns="http://www.w3.org/2000/svg">
<path d="M74 0L110.208 27.1646L147.231 53.2057L132.585 96.0354L119.259 139.294L74 138.6L28.7405 139.294L15.4149 96.0354L0.768646 53.2057L37.7924 27.1646L74 0Z" fill="#C4C4C4"/>
<path d="M74 0L110.208 27.1646L147.231 53.2057L132.585 96.0354L119.259 139.294L74 138.6L28.7405 139.294L15.4149 96.0354L0.768646 53.2057L37.7924 27.1646L74 0Z" fill="url(#paint0_linear)"/>
<path d="M55.25 72.75V66.5H67.75V41.5H61.5V35.25H67.75V29H80.25V66.5H92.75V72.75H55.25Z" fill="white"/>
<path d="M35.5 95.5H38.25V98.25H32.75V95.5H30V84.5H35.5V95.5ZM41 84.5V95.5H38.25V84.5H41ZM49.25 84.5V95.5H46.5V98.25H41V95.5H43.75V84.5H49.25ZM54.75 98.25V95.5H52V87.25H54.75V84.5H68.5V87.25H71.25V92.75H57.5V95.5H68.5V98.25H54.75ZM57.5 90H65.75V87.25H57.5V90ZM76.75 98.25V95.5H74V87.25H76.75V84.5H90.5V87.25H93.25V92.75H79.5V95.5H90.5V98.25H76.75ZM79.5 90H87.75V87.25H79.5V90ZM96 98.25V79H101.5V90H107V87.25H109.75V84.5H115.25V87.25H112.5V90H109.75V92.75H112.5V95.5H115.25V98.25H109.75V95.5H107V92.75H101.5V98.25H96Z" fill="white"/>
<defs>
<linearGradient id="paint0_linear" x1="74" y1="0" x2="74" y2="154" gradientUnits="userSpaceOnUse">
<stop stop-color="#00FFFF"/>
<stop offset="1" stop-color="#002978"/>
</linearGradient>
</defs>
</svg>
