<svg width="147" height="140" viewBox="0 0 147 140" fill="none" xmlns="http://www.w3.org/2000/svg">
<path d="M73.2314 0L109.439 27.1646L146.463 53.2057L131.816 96.0354L118.491 139.294L73.2314 138.6L27.9719 139.294L14.6463 96.0354L0 53.2057L37.0238 27.1646L73.2314 0Z" fill="#C4C4C4"/>
<path d="M73.2314 0L109.439 27.1646L146.463 53.2057L131.816 96.0354L118.491 139.294L73.2314 138.6L27.9719 139.294L14.6463 96.0354L0 53.2057L37.0238 27.1646L73.2314 0Z" fill="url(#paint0_linear)"/>
<path d="M54.25 72.75V66.5H66.75V41.5H60.5V35.25H66.75V29H79.25V66.5H91.75V72.75H54.25Z" fill="white"/>
<path d="M31.75 101V98.25H42.75V95.5H31.75V92.75H29V84.5H34.5V92.75H42.75V84.5H48.25V98.25H45.5V101H31.75ZM53.75 98.25V95.5H51V87.25H53.75V84.5H67.5V87.25H70.25V92.75H56.5V95.5H67.5V98.25H53.75ZM56.5 90H64.75V87.25H56.5V90ZM75.75 98.25V95.5H73V92.75H75.75V90H86.75V87.25H75.75V84.5H89.5V87.25H92.25V98.25H75.75ZM78.5 95.5H86.75V92.75H78.5V95.5ZM103.25 87.25H106V90H103.25V98.25H97.75V84.5H103.25V87.25ZM114.25 84.5V87.25H106V84.5H114.25Z" fill="white"/>
<defs>
<linearGradient id="paint0_linear" x1="73.2314" y1="0" x2="73.2313" y2="154" gradientUnits="userSpaceOnUse">
<stop stop-color="#FF6FDF"/>
<stop offset="1" stop-color="#1F0923"/>
</linearGradient>
</defs>
</svg>
