<svg width="147" height="140" viewBox="0 0 147 140" fill="none" xmlns="http://www.w3.org/2000/svg">
<path d="M73.2314 0L109.439 27.1646L146.463 53.2057L131.816 96.0354L118.491 139.294L73.2314 138.6L27.9719 139.294L14.6463 96.0354L0 53.2057L37.0238 27.1646L73.2314 0Z" fill="#C4C4C4"/>
<path d="M73.2314 0L109.439 27.1646L146.463 53.2057L131.816 96.0354L118.491 139.294L73.2314 138.6L27.9719 139.294L14.6463 96.0354L0 53.2057L37.0238 27.1646L73.2314 0Z" fill="url(#paint0_linear)"/>
<path d="M48.2314 72.75V60.25H54.4814V54H60.7314V47.75H73.2314V41.5H79.4814V35.25H60.7314V41.5H48.2314V35.25H54.4814V29H85.7314V35.25H91.9814V47.75H85.7314V54H79.4814V60.25H66.9814V66.5H91.9814V72.75H48.2314Z" fill="white"/>
<path d="M25.5 95.5H28.25V98.25H22.75V95.5H20V84.5H25.5V95.5ZM31 84.5V95.5H28.25V84.5H31ZM39.25 84.5V95.5H36.5V98.25H31V95.5H33.75V84.5H39.25ZM44.75 98.25V95.5H42V87.25H44.75V84.5H58.5V87.25H61.25V92.75H47.5V95.5H58.5V98.25H44.75ZM47.5 90H55.75V87.25H47.5V90ZM66.75 98.25V95.5H64V87.25H66.75V84.5H80.5V87.25H83.25V92.75H69.5V95.5H80.5V98.25H66.75ZM69.5 90H77.75V87.25H69.5V90ZM86 98.25V79H91.5V90H97V87.25H99.75V84.5H105.25V87.25H102.5V90H99.75V92.75H102.5V95.5H105.25V98.25H99.75V95.5H97V92.75H91.5V98.25H86ZM108 98.25V95.5H121.75V92.75H110.75V90H108V87.25H110.75V84.5H124.5V87.25H113.5V90H124.5V92.75H127.25V95.5H124.5V98.25H108Z" fill="white"/>
<defs>
<linearGradient id="paint0_linear" x1="73.2314" y1="0" x2="73.2313" y2="154" gradientUnits="userSpaceOnUse">
<stop stop-color="#4CD951"/>
<stop offset="1" stop-color="#185617"/>
</linearGradient>
</defs>
</svg>
