<svg width="147" height="140" viewBox="0 0 147 140" fill="none" xmlns="http://www.w3.org/2000/svg">
<path d="M73.2314 0L109.439 27.1646L146.463 53.2057L131.816 96.0354L118.491 139.294L73.2314 138.6L27.9719 139.294L14.6463 96.0354L0 53.2057L37.0238 27.1646L73.2314 0Z" fill="#C4C4C4"/>
<path d="M73.2314 0L109.439 27.1646L146.463 53.2057L131.816 96.0354L118.491 139.294L73.2314 138.6L27.9719 139.294L14.6463 96.0354L0 53.2057L37.0238 27.1646L73.2314 0Z" fill="url(#paint0_linear)"/>
<path d="M52 72.75V60.25H58.25V54H64.5V47.75H77V41.5H83.25V35.25H64.5V41.5H52V35.25H58.25V29H89.5V35.25H95.75V47.75H89.5V54H83.25V60.25H70.75V66.5H95.75V72.75H52Z" fill="white"/>
<path d="M24.75 101V98.25H35.75V95.5H24.75V92.75H22V84.5H27.5V92.75H35.75V84.5H41.25V98.25H38.5V101H24.75ZM46.75 98.25V95.5H44V87.25H46.75V84.5H60.5V87.25H63.25V92.75H49.5V95.5H60.5V98.25H46.75ZM49.5 90H57.75V87.25H49.5V90ZM68.75 98.25V95.5H66V92.75H68.75V90H79.75V87.25H68.75V84.5H82.5V87.25H85.25V98.25H68.75ZM71.5 95.5H79.75V92.75H71.5V95.5ZM96.25 87.25H99V90H96.25V98.25H90.75V84.5H96.25V87.25ZM107.25 84.5V87.25H99V84.5H107.25ZM110 98.25V95.5H123.75V92.75H112.75V90H110V87.25H112.75V84.5H126.5V87.25H115.5V90H126.5V92.75H129.25V95.5H126.5V98.25H110Z" fill="white"/>
<defs>
<linearGradient id="paint0_linear" x1="73.2314" y1="0" x2="73.2313" y2="154" gradientUnits="userSpaceOnUse">
<stop stop-color="#FF6FDF"/>
<stop offset="0.0001" stop-color="white"/>
<stop offset="1" stop-color="#282328"/>
</linearGradient>
</defs>
</svg>
