<svg width="465" height="977" viewBox="0 0 465 977" fill="none" xmlns="http://www.w3.org/2000/svg">
<path d="M88.7729 61.8756L85.8002 73.6299L77.107 65.1783L88.7729 61.8756Z" fill="#F9FAFB"/>
<path d="M162.891 60.7325L152.535 67.0374L152.253 54.9163L162.891 60.7325Z" fill="#F9FAFB"/>
<path d="M149.326 116.163L155.137 126.804L143.016 126.515L149.326 116.163Z" fill="#F9FAFB"/>
<circle cx="132.995" cy="87.9961" r="6" fill="#F9FAFB"/>
<circle cx="125.995" cy="142.996" r="6" fill="#F9FAFB"/>
<circle cx="106.995" cy="44.9961" r="6" fill="#F9FAFB"/>
<path d="M126.495 52.9961L128.179 58.1785H133.628L129.219 61.3813L130.903 66.5637L126.495 63.3608L122.086 66.5637L123.77 61.3813L119.362 58.1785H124.811L126.495 52.9961Z" fill="#F9FAFB"/>
<path d="M66.4949 41.9961L68.1787 47.1785H73.6278L69.2194 50.3813L70.9033 55.5637L66.4949 52.3608L62.0865 55.5637L63.7703 50.3813L59.3619 47.1785H64.811L66.4949 41.9961Z" fill="#F9FAFB"/>
<path d="M120.938 107.338L118.335 112.125L122.084 116.08L116.727 115.084L114.124 119.871L113.416 114.468L108.058 113.472L112.978 111.129L112.27 105.726L116.018 109.681L120.938 107.338Z" fill="#F9FAFB"/>
<path d="M69.0883 117.495L63.9277 119.245L63.9965 124.693L60.7382 120.326L55.5775 122.075L58.7244 117.626L55.4661 113.259L60.6694 114.877L63.8163 110.429L63.8851 115.877L69.0883 117.495Z" fill="#F9FAFB"/>
<line x1="103.442" y1="75.7725" x2="112.442" y2="93.7725" stroke="#F9FAFB"/>
<line x1="72.1717" y1="77.4685" x2="53.1588" y2="84.0646" stroke="#F9FAFB"/>
<line x1="153.463" y1="47.1194" x2="133.88" y2="42.4834" stroke="#F9FAFB"/>
<line x1="166.837" y1="85.2045" x2="158.449" y2="103.498" stroke="#F9FAFB"/>
<line x1="108.848" y1="134.007" x2="91.732" y2="123.423" stroke="#F9FAFB"/>
<path d="M196.334 103.818L206.466 110.478L195.632 115.922L196.334 103.818Z" fill="#F9FAFB"/>
<path d="M219.539 33.4163L222.103 45.2665L210.558 41.5617L219.539 33.4163Z" fill="#F9FAFB"/>
<path d="M267.465 64.3959L279.422 62.3925L275.178 73.7499L267.465 64.3959Z" fill="#F9FAFB"/>
<circle cx="235.502" cy="70.5939" r="6" transform="rotate(-70.874 235.502 70.5939)" fill="#F9FAFB"/>
<circle cx="285.173" cy="95.2307" r="6" transform="rotate(-70.874 285.173 95.2307)" fill="#F9FAFB"/>
<circle cx="186.357" cy="81.0705" r="6" transform="rotate(-70.874 186.357 81.0705)" fill="#F9FAFB"/>
<path d="M200.304 65.2695L205.752 65.3765L207.538 60.2283L209.119 65.4427L214.567 65.5498L210.097 68.6654L211.679 73.8799L207.334 70.591L202.864 73.7066L204.649 68.5584L200.304 65.2695Z" fill="#F9FAFB"/>
<path d="M170.253 118.351L175.701 118.459L177.486 113.31L179.068 118.525L184.516 118.632L180.045 121.747L181.627 126.962L177.282 123.673L172.812 126.789L174.597 121.64L170.253 118.351Z" fill="#F9FAFB"/>
<path d="M249.825 88.3225L253.496 92.35L258.46 90.1039L255.764 94.8392L259.434 98.8667L254.098 97.7657L251.402 102.501L250.8 97.0853L245.463 95.9844L250.427 93.7382L249.825 88.3225Z" fill="#F9FAFB"/>
<path d="M290.833 35.0881L294.504 39.1156L299.468 36.8695L296.772 41.6048L300.442 45.6323L295.106 44.5313L292.409 49.2666L291.807 43.8509L286.471 42.75L291.435 40.5038L290.833 35.0881Z" fill="#F9FAFB"/>
<path d="M242.434 140.641L242.396 146.09L247.566 147.81L242.372 149.458L242.334 154.907L239.162 150.476L233.968 152.123L237.202 147.737L234.03 143.307L239.201 145.027L242.434 140.641Z" fill="#F9FAFB"/>
<line x1="214.27" y1="94.512" x2="234.225" y2="91.9065" stroke="#F9FAFB"/>
<line x1="205.627" y1="124.613" x2="205.629" y2="144.738" stroke="#F9FAFB"/>
<line x1="203.588" y1="37.8659" x2="192.792" y2="54.8493" stroke="#F9FAFB"/>
<line x1="243.953" y1="37.7053" x2="258.488" y2="51.6236" stroke="#F9FAFB"/>
<line x1="271.062" y1="108.485" x2="255.454" y2="121.189" stroke="#F9FAFB"/>
<path d="M379.464 123.442L381.164 111.438L390.71 118.912L379.464 123.442Z" fill="#F9FAFB"/>
<path d="M305.891 132.493L315.515 125.118L317.09 137.14L305.891 132.493Z" fill="#F9FAFB"/>
<path d="M313.459 75.9295L306.545 65.9698L318.627 64.962L313.459 75.9295Z" fill="#F9FAFB"/>
<circle cx="332.705" cy="102.191" r="6" transform="rotate(173.869 332.705 102.191)" fill="#F9FAFB"/>
<circle cx="333.791" cy="46.7611" r="6" transform="rotate(173.869 333.791 46.7611)" fill="#F9FAFB"/>
<circle cx="363.149" cy="142.171" r="6" transform="rotate(173.869 363.149 142.171)" fill="#F9FAFB"/>
<circle cx="384.606" cy="41.6009" r="6" transform="rotate(173.869 384.606 41.6009)" fill="#F9FAFB"/>
<path d="M342.906 136.297L340.678 131.324L335.26 131.906L339.301 128.251L337.074 123.278L341.799 125.992L345.84 122.336L344.719 127.669L349.445 130.383L344.027 130.965L342.906 136.297Z" fill="#F9FAFB"/>
<path d="M403.737 140.828L401.51 135.855L396.092 136.437L400.133 132.782L397.905 127.809L402.631 130.523L406.672 126.868L405.551 132.2L410.276 134.914L404.858 135.496L403.737 140.828Z" fill="#F9FAFB"/>
<path d="M342.627 81.6743L344.704 76.6364L340.554 73.1048L345.987 73.5228L348.063 68.4848L349.345 73.7811L354.778 74.1991L350.137 77.0544L351.418 82.3506L347.268 78.819L342.627 81.6743Z" fill="#F9FAFB"/>
<path d="M432.712 140.284L434.788 135.246L430.638 131.714L436.071 132.132L438.148 127.094L439.429 132.39L444.862 132.808L440.221 135.664L441.502 140.96L437.353 137.428L432.712 140.284Z" fill="#F9FAFB"/>
<path d="M393.095 66.038L398.04 63.7477L397.389 58.3375L401.096 62.3322L406.04 60.0418L403.386 64.801L407.092 68.7956L401.746 67.7423L399.092 72.5014L398.442 67.0913L393.095 66.038Z" fill="#F9FAFB"/>
<line x1="363.394" y1="111.192" x2="352.523" y2="94.2561" stroke="#F9FAFB"/>
<line x1="394.305" y1="106.165" x2="412.504" y2="97.576" stroke="#F9FAFB"/>
<line x1="316.72" y1="145.023" x2="336.686" y2="147.541" stroke="#F9FAFB"/>
<line x1="299.354" y1="108.584" x2="305.74" y2="89.4989" stroke="#F9FAFB"/>
<line x1="351.799" y1="53.8655" x2="369.948" y2="62.5614" stroke="#F9FAFB"/>
<path d="M82.9296 157.112L93.7934 151.729L93.0235 163.829L82.9296 157.112Z" fill="#F9FAFB"/>
<path d="M44.4445 209.987L55.3083 204.604L54.5384 216.704L44.4445 209.987Z" fill="#F9FAFB"/>
<circle cx="54.1361" cy="172.31" r="6" transform="rotate(-87.7219 54.1361 172.31)" fill="#F9FAFB"/>
<circle cx="50.2335" cy="248.235" r="6" transform="rotate(-87.7219 50.2335 248.235)" fill="#F9FAFB"/>
<circle cx="108.814" cy="181.489" r="6" transform="rotate(-87.7219 108.814 181.489)" fill="#F9FAFB"/>
<path d="M72.983 185.123L77.6631 187.914L81.7636 184.325L80.5555 189.639L85.2357 192.43L79.8089 192.923L78.6009 198.236L76.4551 193.227L71.0283 193.721L75.1288 190.132L72.983 185.123Z" fill="#F9FAFB"/>
<path d="M81.0719 237.336L82.6146 242.562L88.0616 242.71L83.568 245.792L85.1106 251.019L80.7907 247.697L76.2971 250.779L78.1209 245.645L73.801 242.323L79.2481 242.471L81.0719 237.336Z" fill="#F9FAFB"/>
<line x1="52.6919" y1="138.382" x2="70.6374" y2="147.49" stroke="#F9FAFB"/>
<line x1="99.151" y1="198.264" x2="87.8946" y2="214.946" stroke="#F9FAFB"/>
<path d="M34.7282 475.164L45.1649 468.994L45.2903 481.118L34.7282 475.164Z" fill="#F9FAFB"/>
<circle cx="7.13531" cy="492.447" r="6" transform="rotate(-91.9551 7.13531 492.447)" fill="#F9FAFB"/>
<circle cx="62.3421" cy="497.564" r="6" transform="rotate(-91.9551 62.3421 497.564)" fill="#F9FAFB"/>
<path d="M26.8769 503.837L31.7502 506.275L35.5746 502.393L34.7621 507.782L39.6355 510.219L34.26 511.112L33.4475 516.5L30.9377 511.663L25.5622 512.555L29.3866 508.674L26.8769 503.837Z" fill="#F9FAFB"/>
<path d="M38.7977 555.31L40.7219 560.408L46.165 560.153L41.9111 563.558L43.8353 568.656L39.2821 565.663L35.0282 569.068L36.468 563.813L31.9148 560.82L37.3579 560.565L38.7977 555.31Z" fill="#F9FAFB"/>
<line x1="3.19081" y1="458.718" x2="21.7597" y2="466.477" stroke="#F9FAFB"/>
<line x1="53.9435" y1="515.01" x2="43.9492" y2="532.478" stroke="#F9FAFB"/>
<path d="M449.974 97.4099L439.531 103.57L439.417 91.4461L449.974 97.4099Z" fill="#F9FAFB"/>
<circle cx="422.382" cy="74.9806" r="6" transform="rotate(88.1015 422.382 74.9806)" fill="#F9FAFB"/>
<path d="M457.853 68.7474L452.982 66.3048L449.154 70.1826L449.972 64.7952L445.101 62.3526L450.477 61.4657L451.295 56.0783L453.8 60.9175L459.176 60.0305L455.348 63.9082L457.853 68.7474Z" fill="#F9FAFB"/>
<path d="M445.983 17.2611L444.064 12.1611L438.621 12.4104L442.878 9.00922L440.959 3.9093L445.509 6.90716L449.766 3.50597L448.321 8.75995L452.872 11.7578L447.428 12.0071L445.983 17.2611Z" fill="#F9FAFB"/>
<line x1="481.495" y1="113.887" x2="462.934" y2="106.11" stroke="#F9FAFB"/>
<line x1="430.798" y1="57.5481" x2="440.809" y2="40.0905" stroke="#F9FAFB"/>
<path d="M233.01 433.151L226.383 443.303L220.904 432.487L233.01 433.151Z" fill="#F9FAFB"/>
<path d="M253.652 469.245L247.024 479.397L241.546 468.581L253.652 469.245Z" fill="#F9FAFB"/>
<circle cx="250.104" cy="405.441" r="6" transform="rotate(61.7746 250.104 405.441)" fill="#F9FAFB"/>
<circle cx="198.333" cy="425.284" r="6" transform="rotate(61.7746 198.333 425.284)" fill="#F9FAFB"/>
<path d="M227.36 403.964L221.911 403.935L220.2 409.109L218.544 403.917L213.095 403.888L217.52 400.709L215.864 395.518L220.255 398.744L224.68 395.565L222.969 400.738L227.36 403.964Z" fill="#F9FAFB"/>
<path d="M193.888 363.083L189.906 359.364L185.138 362.001L187.445 357.065L183.464 353.345L188.871 354.014L191.179 349.077L192.214 354.427L197.622 355.096L192.853 357.733L193.888 363.083Z" fill="#F9FAFB"/>
<line x1="268.569" y1="433.937" x2="248.484" y2="435.198" stroke="#F9FAFB"/>
<line x1="198.144" y1="405.926" x2="199.375" y2="385.84" stroke="#F9FAFB"/>
<path d="M297.6 170.902L290.325 180.601L285.563 169.451L297.6 170.902Z" fill="#F9FAFB"/>
<path d="M366.427 198.43L354.441 200.254L358.854 188.961L366.427 198.43Z" fill="#F9FAFB"/>
<path d="M332.536 244.34L333.793 256.399L322.721 251.459L332.536 244.34Z" fill="#F9FAFB"/>
<circle cx="328.329" cy="212.057" r="6" transform="rotate(22.6823 328.329 212.057)" fill="#F9FAFB"/>
<circle cx="300.662" cy="260.104" r="6" transform="rotate(22.6823 300.662 260.104)" fill="#F9FAFB"/>
<circle cx="320.922" cy="162.357" r="6" transform="rotate(22.6823 320.922 162.357)" fill="#F9FAFB"/>
<path d="M335.829 177.255L335.384 182.686L340.411 184.788L335.109 186.043L334.664 191.474L331.832 186.819L326.529 188.074L330.081 183.942L327.249 179.286L332.277 181.388L335.829 177.255Z" fill="#F9FAFB"/>
<path d="M284.711 143.97L284.266 149.401L289.294 151.502L283.991 152.758L283.547 158.189L280.714 153.533L275.412 154.789L278.964 150.656L276.132 146.001L281.159 148.103L284.711 143.97Z" fill="#F9FAFB"/>
<path d="M309.746 225.254L305.499 228.667L307.433 233.762L302.874 230.777L298.626 234.191L300.056 228.932L295.497 225.948L300.94 225.683L302.37 220.425L304.304 225.519L309.746 225.254Z" fill="#F9FAFB"/>
<path d="M257.99 214.632L252.554 214.255L250.516 219.309L249.194 214.023L243.758 213.647L248.377 210.756L247.055 205.47L251.232 208.969L255.851 206.078L253.813 211.132L257.99 214.632Z" fill="#F9FAFB"/>
<line x1="305.776" y1="189.38" x2="307.139" y2="209.459" stroke="#F9FAFB"/>
<line x1="276.27" y1="178.89" x2="256.184" y2="177.644" stroke="#F9FAFB"/>
<line x1="362.977" y1="182.233" x2="346.696" y2="170.404" stroke="#F9FAFB"/>
<line x1="360.63" y1="222.532" x2="345.837" y2="236.176" stroke="#F9FAFB"/>
<line x1="288.307" y1="245.197" x2="276.597" y2="228.831" stroke="#F9FAFB"/>
<path d="M386.779 278.419L375.466 282.781L377.345 270.803L386.779 278.419Z" fill="#F9FAFB"/>
<path d="M430.519 338.265L419.391 333.452L429.123 326.221L430.519 338.265Z" fill="#F9FAFB"/>
<path d="M377.433 359.204L372.102 370.093L365.337 360.031L377.433 359.204Z" fill="#F9FAFB"/>
<circle cx="390.995" cy="329.606" r="6" transform="rotate(54.7216 390.995 329.606)" fill="#F9FAFB"/>
<circle cx="342.053" cy="355.656" r="6" transform="rotate(54.7216 342.053 355.656)" fill="#F9FAFB"/>
<circle cx="411.082" cy="283.543" r="6" transform="rotate(54.7216 411.082 283.543)" fill="#F9FAFB"/>
<path d="M415.814 304.084L412.555 308.451L415.703 312.9L410.542 311.151L407.284 315.518L407.352 310.07L402.191 308.321L407.395 306.702L407.463 301.254L410.61 305.702L415.814 304.084Z" fill="#F9FAFB"/>
<path d="M390.14 248.748L386.882 253.115L390.029 257.564L384.869 255.815L381.611 260.182L381.679 254.734L376.518 252.985L381.722 251.366L381.79 245.918L384.937 250.366L390.14 248.748Z" fill="#F9FAFB"/>
<path d="M368.242 330.934L362.831 331.574L361.768 336.919L359.486 331.97L354.075 332.61L358.077 328.912L355.795 323.963L360.55 326.626L364.551 322.927L363.488 328.271L368.242 330.934Z" fill="#F9FAFB"/>
<path d="M330.004 294.471L325.596 291.268L321.187 294.471L322.871 289.289L318.462 286.086L323.912 286.086L325.595 280.904L327.279 286.086L332.728 286.086L328.32 289.289L330.004 294.471Z" fill="#F9FAFB"/>
<line x1="383.906" y1="298.42" x2="374.409" y2="316.163" stroke="#F9FAFB"/>
<line x1="364.461" y1="273.871" x2="348.096" y2="262.16" stroke="#F9FAFB"/>
<line x1="436.187" y1="322.707" x2="428.661" y2="304.042" stroke="#F9FAFB"/>
<line x1="412.82" y1="355.62" x2="393.042" y2="359.338" stroke="#F9FAFB"/>
<line x1="339.488" y1="336.465" x2="338.243" y2="316.378" stroke="#F9FAFB"/>
<path d="M406.511 247.826L414.421 238.637L418.424 250.082L406.511 247.826Z" fill="#F9FAFB"/>
<path d="M402.338 190.912L393.532 182.579L405.152 179.118L402.338 190.912Z" fill="#F9FAFB"/>
<circle cx="426.553" cy="212.676" r="6" transform="rotate(162.055 426.553 212.676)" fill="#F9FAFB"/>
<circle cx="416.267" cy="158.195" r="6" transform="rotate(162.055 416.267 158.195)" fill="#F9FAFB"/>
<circle cx="464.537" cy="245.574" r="6" transform="rotate(162.055 464.537 245.574)" fill="#F9FAFB"/>
<path d="M443.521 243.971L440.322 239.559L435.138 241.238L438.345 236.833L435.146 232.422L440.327 234.11L443.534 229.705L443.529 235.154L448.71 236.843L443.526 238.522L443.521 243.971Z" fill="#F9FAFB"/>
<path d="M432.065 190.56L433.066 185.204L428.281 182.596L433.684 181.893L434.685 176.537L437.024 181.459L442.427 180.755L438.469 184.5L440.808 189.422L436.023 186.815L432.065 190.56Z" fill="#F9FAFB"/>
<line x1="458.434" y1="215.202" x2="444.326" y2="200.851" stroke="#F9FAFB"/>
<line x1="419.675" y1="257.873" x2="439.734" y2="256.249" stroke="#F9FAFB"/>
<line x1="395.218" y1="225.758" x2="397.561" y2="205.77" stroke="#F9FAFB"/>
<line x1="435.349" y1="161.464" x2="454.894" y2="166.26" stroke="#F9FAFB"/>
<path d="M161.294 178.502L158.116 190.202L149.572 181.6L161.294 178.502Z" fill="#F9FAFB"/>
<path d="M235.421 178.656L224.956 184.779L224.886 172.655L235.421 178.656Z" fill="#F9FAFB"/>
<path d="M220.887 233.84L226.51 244.581L214.396 244.081L220.887 233.84Z" fill="#F9FAFB"/>
<circle cx="205.051" cy="205.393" r="6" transform="rotate(1.00367 205.051 205.393)" fill="#F9FAFB"/>
<circle cx="197.089" cy="260.26" r="6" transform="rotate(1.00367 197.089 260.26)" fill="#F9FAFB"/>
<circle cx="179.809" cy="161.944" r="6" transform="rotate(1.00367 179.809 161.944)" fill="#F9FAFB"/>
<path d="M199.166 170.284L200.758 175.495L206.207 175.59L201.743 178.715L203.336 183.926L198.984 180.647L194.52 183.772L196.295 178.62L191.943 175.34L197.391 175.436L199.166 170.284Z" fill="#F9FAFB"/>
<path d="M139.368 158.237L140.96 163.448L146.409 163.543L141.945 166.669L143.538 171.88L139.186 168.6L134.722 171.725L136.497 166.573L132.145 163.293L137.593 163.389L139.368 158.237Z" fill="#F9FAFB"/>
<path d="M192.657 224.521L189.971 229.262L193.65 233.282L188.311 232.192L185.625 236.933L185.012 231.519L179.672 230.429L184.632 228.172L184.019 222.758L187.698 226.778L192.657 224.521Z" fill="#F9FAFB"/>
<path d="M140.638 233.769L135.448 235.428L135.421 240.877L132.24 236.453L127.049 238.111L130.274 233.719L127.092 229.295L132.266 231.004L135.491 226.611L135.464 232.06L140.638 233.769Z" fill="#F9FAFB"/>
<line x1="175.717" y1="192.655" x2="184.401" y2="210.81" stroke="#F9FAFB"/>
<line x1="67.4508" y1="261.784" x2="76.1341" y2="279.939" stroke="#F9FAFB"/>
<line x1="144.422" y1="193.803" x2="125.296" y2="200.065" stroke="#F9FAFB"/>
<line x1="226.232" y1="164.883" x2="206.733" y2="159.905" stroke="#F9FAFB"/>
<line x1="238.937" y1="203.193" x2="230.231" y2="221.337" stroke="#F9FAFB"/>
<line x1="180.103" y1="250.975" x2="163.174" y2="240.093" stroke="#F9FAFB"/>
<path d="M261.581 284.081L250.693 289.416L251.517 277.32L261.581 284.081Z" fill="#F9FAFB"/>
<path d="M310.39 339.873L298.883 336.052L307.945 327.998L310.39 339.873Z" fill="#F9FAFB"/>
<path d="M259.34 365.375L254.982 376.689L247.363 367.258L259.34 365.375Z" fill="#F9FAFB"/>
<circle cx="270.26" cy="334.703" r="6" transform="rotate(49.702 270.26 334.703)" fill="#F9FAFB"/>
<circle cx="223.785" cy="364.937" r="6" transform="rotate(49.702 223.785 364.937)" fill="#F9FAFB"/>
<circle cx="286.24" cy="287.062" r="6" transform="rotate(49.702 286.24 287.062)" fill="#F9FAFB"/>
<path d="M292.75 307.107L289.887 311.743L293.411 315.899L288.117 314.608L285.254 319.244L284.845 313.81L279.551 312.52L284.593 310.452L284.185 305.018L287.709 309.174L292.75 307.107Z" fill="#F9FAFB"/>
<path d="M262.334 254.232L259.471 258.868L262.995 263.024L257.701 261.733L254.837 266.369L254.429 260.935L249.135 259.645L254.177 257.577L253.768 252.143L257.293 256.299L262.334 254.232Z" fill="#F9FAFB"/>
<path d="M247.71 338.018L242.376 339.129L241.784 344.546L239.079 339.816L233.744 340.928L237.407 336.893L234.702 332.163L239.671 334.399L243.333 330.365L242.742 335.782L247.71 338.018Z" fill="#F9FAFB"/>
<path d="M206.429 305.04L201.757 302.235L197.646 305.811L198.87 300.502L194.198 297.697L199.626 297.22L200.85 291.91L202.981 296.925L208.409 296.448L204.298 300.025L206.429 305.04Z" fill="#F9FAFB"/>
<line x1="260.469" y1="304.259" x2="252.562" y2="322.765" stroke="#F9FAFB"/>
<line x1="238.951" y1="281.505" x2="221.624" y2="271.27" stroke="#F9FAFB"/>
<line x1="314.674" y1="323.875" x2="305.544" y2="305.941" stroke="#F9FAFB"/>
<line x1="294.277" y1="358.708" x2="274.9" y2="364.142" stroke="#F9FAFB"/>
<line x1="219.551" y1="346.043" x2="216.553" y2="326.143" stroke="#F9FAFB"/>
<path d="M91.8767 303.453L93.7471 315.432L82.4376 311.062L91.8767 303.453Z" fill="#F9FAFB"/>
<path d="M159.621 273.359L152.564 283.218L147.555 272.176L159.621 273.359Z" fill="#F9FAFB"/>
<path d="M111.641 221.375L104.584 231.233L99.5748 220.192L111.641 221.375Z" fill="#F9FAFB"/>
<path d="M168.858 329.673L178.374 337.187L167.109 341.67L168.858 329.673Z" fill="#F9FAFB"/>
<path d="M50.5035 357.587L60.019 365.101L48.7542 369.585L50.5035 357.587Z" fill="#F9FAFB"/>
<circle cx="142.797" cy="310.158" r="6" transform="rotate(-23.0671 142.797 310.158)" fill="#F9FAFB"/>
<circle cx="157.906" cy="363.501" r="6" transform="rotate(-23.0671 157.906 363.501)" fill="#F9FAFB"/>
<circle cx="102.028" cy="280.783" r="6" transform="rotate(-23.0671 102.028 280.783)" fill="#F9FAFB"/>
<path d="M123.103 280.503L126.683 284.611L131.697 282.476L128.896 287.15L132.475 291.258L127.164 290.039L124.363 294.713L123.882 289.285L118.571 288.066L123.585 285.931L123.103 280.503Z" fill="#F9FAFB"/>
<path d="M63.5908 293.89L67.1705 297.998L72.1839 295.863L69.3829 300.537L72.9626 304.645L67.6518 303.426L64.8508 308.1L64.3695 302.672L59.0587 301.452L64.0721 299.317L63.5908 293.89Z" fill="#F9FAFB"/>
<path d="M139.282 332.678L138.763 338.102L143.762 340.272L138.443 341.454L137.924 346.879L135.155 342.185L129.836 343.368L133.444 339.285L130.676 334.591L135.674 336.761L139.282 332.678Z" fill="#F9FAFB"/>
<path d="M95.5584 362.335L91.4957 365.967L93.6938 370.953L88.9848 368.211L84.922 371.842L86.0744 366.516L81.3654 363.775L86.7866 363.225L87.939 357.899L90.1372 362.885L95.5584 362.335Z" fill="#F9FAFB"/>
<line x1="110.818" y1="310.49" x2="126.151" y2="323.525" stroke="#F9FAFB"/>
<line x1="82.7121" y1="324.304" x2="67.8037" y2="337.822" stroke="#F9FAFB"/>
<line x1="145.613" y1="264.528" x2="125.779" y2="267.936" stroke="#F9FAFB"/>
<line x1="172.84" y1="294.33" x2="172.29" y2="314.447" stroke="#F9FAFB"/>
<line x1="138.609" y1="361.951" x2="118.714" y2="358.919" stroke="#F9FAFB"/>
<path d="M82.8749 914.989L94.6292 917.962L86.1776 926.655L82.8749 914.989Z" fill="#F9FAFB"/>
<path d="M81.7317 840.868L88.0367 851.224L75.9156 851.507L81.7317 840.868Z" fill="#F9FAFB"/>
<path d="M137.162 854.436L147.803 848.625L147.515 860.746L137.162 854.436Z" fill="#F9FAFB"/>
<circle cx="108.995" cy="870.766" r="6" transform="rotate(-90 108.995 870.766)" fill="#F9FAFB"/>
<circle cx="119" cy="920" r="6" transform="rotate(-90 119 920)" fill="#F9FAFB"/>
<circle cx="163.995" cy="877.766" r="6" transform="rotate(-90 163.995 877.766)" fill="#F9FAFB"/>
<circle cx="65.9954" cy="896.766" r="6" transform="rotate(-90 65.9954 896.766)" fill="#F9FAFB"/>
<path d="M73.9954 877.266L79.1777 875.582V870.133L82.3806 874.541L87.563 872.857L84.3601 877.266L87.563 881.674L82.3806 879.99L79.1777 884.399V878.949L73.9954 877.266Z" fill="#F9FAFB"/>
<path d="M62.9954 937.266L68.1777 935.582V930.133L71.3806 934.541L76.563 932.857L73.3601 937.266L76.563 941.674L71.3806 939.99L68.1777 944.399V938.949L62.9954 937.266Z" fill="#F9FAFB"/>
<path d="M128.337 882.825L133.124 885.427L137.079 881.678L136.083 887.036L140.87 889.638L135.467 890.347L134.472 895.704L132.128 890.785L126.726 891.493L130.68 887.744L128.337 882.825Z" fill="#F9FAFB"/>
<path d="M138.495 934.671L140.244 939.832L145.693 939.763L141.325 943.021L143.074 948.182L138.626 945.035L134.258 948.293L135.876 943.09L131.428 939.943L136.876 939.874L138.495 934.671Z" fill="#F9FAFB"/>
<line x1="96.7718" y1="900.318" x2="114.772" y2="891.318" stroke="#F9FAFB"/>
<line x1="98.4677" y1="931.59" x2="105.064" y2="950.603" stroke="#F9FAFB"/>
<line x1="68.1186" y1="850.299" x2="63.4827" y2="869.882" stroke="#F9FAFB"/>
<line x1="106.204" y1="836.924" x2="124.497" y2="845.312" stroke="#F9FAFB"/>
<line x1="155.007" y1="894.911" x2="144.422" y2="912.028" stroke="#F9FAFB"/>
<path d="M124.818 807.425L131.477 797.294L136.922 808.127L124.818 807.425Z" fill="#F9FAFB"/>
<path d="M53.1432 829.542L59.8031 819.411L65.2472 830.244L53.1432 829.542Z" fill="#F9FAFB"/>
<path d="M54.4158 784.222L66.266 781.658L62.5612 793.202L54.4158 784.222Z" fill="#F9FAFB"/>
<path d="M85.3942 736.296L83.3908 724.338L94.7482 728.582L85.3942 736.296Z" fill="#F9FAFB"/>
<circle cx="91.5949" cy="768.26" r="6" transform="rotate(-160.874 91.5949 768.26)" fill="#F9FAFB"/>
<circle cx="116.229" cy="718.588" r="6" transform="rotate(-160.874 116.229 718.588)" fill="#F9FAFB"/>
<circle cx="102.071" cy="817.404" r="6" transform="rotate(-160.874 102.071 817.404)" fill="#F9FAFB"/>
<path d="M86.2685 803.457L86.3756 798.009L81.2273 796.223L86.4417 794.642L86.5488 789.194L89.6645 793.664L94.8789 792.082L91.59 796.427L94.7057 800.897L89.5574 799.112L86.2685 803.457Z" fill="#F9FAFB"/>
<path d="M139.352 833.507L139.46 828.059L134.311 826.274L139.526 824.692L139.633 819.244L142.748 823.715L147.963 822.133L144.674 826.478L147.79 830.948L142.641 829.163L139.352 833.507Z" fill="#F9FAFB"/>
<path d="M109.324 753.936L113.351 750.266L111.105 745.301L115.84 747.998L119.868 744.327L118.767 749.664L123.502 752.36L118.087 752.962L116.986 758.299L114.739 753.334L109.324 753.936Z" fill="#F9FAFB"/>
<path d="M161.639 761.325L167.088 761.363L168.809 756.193L170.456 761.387L175.905 761.425L171.474 764.597L173.122 769.791L168.736 766.557L164.305 769.729L166.025 764.559L161.639 761.325Z" fill="#F9FAFB"/>
<line x1="115.512" y1="789.491" x2="112.906" y2="769.535" stroke="#F9FAFB"/>
<line x1="145.612" y1="798.133" x2="165.736" y2="798.13" stroke="#F9FAFB"/>
<line x1="58.8637" y1="800.172" x2="75.8471" y2="810.968" stroke="#F9FAFB"/>
<line x1="58.7062" y1="759.807" x2="72.6246" y2="745.271" stroke="#F9FAFB"/>
<line x1="129.484" y1="732.7" x2="142.188" y2="748.308" stroke="#F9FAFB"/>
<line x1="59.3875" y1="687.684" x2="72.0911" y2="703.293" stroke="#F9FAFB"/>
<path d="M144.439 624.293L132.435 622.592L139.909 613.046L144.439 624.293Z" fill="#F9FAFB"/>
<path d="M153.492 697.866L146.117 688.243L158.138 686.668L153.492 697.866Z" fill="#F9FAFB"/>
<path d="M96.9298 690.3L86.97 697.214L85.9622 685.132L96.9298 690.3Z" fill="#F9FAFB"/>
<path d="M149.534 769.976L139.574 776.89L138.566 764.807L149.534 769.976Z" fill="#F9FAFB"/>
<circle cx="123.191" cy="671.052" r="6" transform="rotate(83.869 123.191 671.052)" fill="#F9FAFB"/>
<circle cx="67.7579" cy="669.966" r="6" transform="rotate(83.869 67.7579 669.966)" fill="#F9FAFB"/>
<circle cx="163.168" cy="640.61" r="6" transform="rotate(83.869 163.168 640.61)" fill="#F9FAFB"/>
<path d="M157.296 660.852L152.323 663.079L152.905 668.497L149.25 664.456L144.277 666.684L146.991 661.959L143.336 657.918L148.668 659.038L151.382 654.313L151.964 659.731L157.296 660.852Z" fill="#F9FAFB"/>
<path d="M161.825 600.02L156.853 602.247L157.435 607.665L153.779 603.624L148.806 605.852L151.52 601.127L147.865 597.085L153.197 598.206L155.911 593.481L156.493 598.899L161.825 600.02Z" fill="#F9FAFB"/>
<path d="M102.672 661.13L97.6344 659.053L94.1028 663.203L94.5208 657.77L89.4829 655.693L94.7791 654.412L95.1971 648.979L98.0524 653.62L103.349 652.339L99.8171 656.488L102.672 661.13Z" fill="#F9FAFB"/>
<path d="M87.0348 610.661L84.7445 605.716L79.3344 606.367L83.329 602.661L81.0387 597.716L85.7978 600.37L89.7924 596.664L88.7391 602.01L93.4982 604.664L88.0881 605.314L87.0348 610.661Z" fill="#F9FAFB"/>
<line x1="132.188" y1="640.362" x2="115.252" y2="651.233" stroke="#F9FAFB"/>
<line x1="127.162" y1="609.452" x2="118.573" y2="591.252" stroke="#F9FAFB"/>
<line x1="166.02" y1="687.039" x2="168.538" y2="667.073" stroke="#F9FAFB"/>
<line x1="129.581" y1="704.404" x2="110.496" y2="698.018" stroke="#F9FAFB"/>
<line x1="74.864" y1="651.96" x2="83.5599" y2="633.811" stroke="#F9FAFB"/>
<path d="M178.106 920.833L172.723 909.969L184.823 910.739L178.106 920.833Z" fill="#F9FAFB"/>
<path d="M233.986 949.415L228.603 938.551L240.703 939.321L233.986 949.415Z" fill="#F9FAFB"/>
<circle cx="193.305" cy="949.626" r="6" transform="rotate(-177.722 193.305 949.626)" fill="#F9FAFB"/>
<circle cx="202.485" cy="894.95" r="6" transform="rotate(-177.722 202.485 894.95)" fill="#F9FAFB"/>
<path d="M206.121 930.778L208.912 926.098L205.323 921.997L210.637 923.205L213.428 918.525L213.921 923.952L219.234 925.16L214.226 927.306L214.719 932.733L211.13 928.632L206.121 930.778Z" fill="#F9FAFB"/>
<path d="M258.333 922.69L263.56 921.148L263.707 915.701L266.789 920.194L272.016 918.652L268.694 922.971L271.776 927.465L266.642 925.641L263.32 929.961L263.468 924.514L258.333 922.69Z" fill="#F9FAFB"/>
<line x1="159.378" y1="951.071" x2="168.486" y2="933.125" stroke="#F9FAFB"/>
<line x1="219.261" y1="904.613" x2="235.943" y2="915.869" stroke="#F9FAFB"/>
<circle cx="426.442" cy="753.656" r="6" transform="rotate(-28.2254 426.442 753.656)" fill="#F9FAFB"/>
<path d="M424.966 776.402L424.937 781.851L430.11 783.563L424.919 785.219L424.89 790.668L421.71 786.243L416.519 787.899L419.745 783.508L416.566 779.082L421.739 780.794L424.966 776.402Z" fill="#F9FAFB"/>
<path d="M435.832 728.359L435.803 733.808L440.976 735.52L435.785 737.176L435.756 742.625L432.576 738.2L427.385 739.856L430.611 735.465L427.432 731.039L432.605 732.751L435.832 728.359Z" fill="#F9FAFB"/>
<path d="M384.086 809.871L380.366 813.853L383.003 818.622L378.067 816.314L374.347 820.296L375.016 814.888L370.079 812.581L375.429 811.546L376.098 806.138L378.736 810.906L384.086 809.871Z" fill="#F9FAFB"/>
<line x1="426.927" y1="805.616" x2="406.84" y2="804.385" stroke="#F9FAFB"/>
<path d="M191.902 706.161L201.601 713.436L190.451 718.198L191.902 706.161Z" fill="#F9FAFB"/>
<path d="M219.429 637.333L221.253 649.32L209.96 644.906L219.429 637.333Z" fill="#F9FAFB"/>
<path d="M265.341 671.225L277.4 669.967L272.46 681.039L265.341 671.225Z" fill="#F9FAFB"/>
<circle cx="233.055" cy="675.43" r="6" transform="rotate(-67.3177 233.055 675.43)" fill="#F9FAFB"/>
<circle cx="281.102" cy="703.098" r="6" transform="rotate(-67.3177 281.102 703.098)" fill="#F9FAFB"/>
<circle cx="183.355" cy="682.836" r="6" transform="rotate(-67.3177 183.355 682.836)" fill="#F9FAFB"/>
<path d="M198.256 667.932L203.687 668.376L205.788 663.349L207.043 668.651L212.474 669.096L207.819 671.928L209.074 677.231L204.942 673.679L200.287 676.511L202.388 671.484L198.256 667.932Z" fill="#F9FAFB"/>
<path d="M164.97 719.049L170.4 719.494L172.502 714.466L173.757 719.769L179.188 720.213L174.533 723.046L175.788 728.348L171.656 724.796L167 727.628L169.102 722.601L164.97 719.049Z" fill="#F9FAFB"/>
<path d="M246.252 694.014L249.665 698.261L254.759 696.328L251.775 700.887L255.188 705.134L249.93 703.704L246.945 708.263L246.68 702.82L241.422 701.391L246.517 699.457L246.252 694.014Z" fill="#F9FAFB"/>
<path d="M235.63 745.769L235.254 751.205L240.307 753.243L235.021 754.565L234.645 760.001L231.754 755.382L226.468 756.704L229.967 752.528L227.076 747.909L232.13 749.946L235.63 745.769Z" fill="#F9FAFB"/>
<line x1="210.381" y1="697.986" x2="230.46" y2="696.623" stroke="#F9FAFB"/>
<line x1="199.887" y1="727.488" x2="198.642" y2="747.574" stroke="#F9FAFB"/>
<line x1="203.233" y1="640.782" x2="191.404" y2="657.063" stroke="#F9FAFB"/>
<line x1="243.53" y1="643.13" x2="257.174" y2="657.923" stroke="#F9FAFB"/>
<line x1="266.197" y1="715.453" x2="249.83" y2="727.164" stroke="#F9FAFB"/>
<path d="M299.417 616.979L303.779 628.292L291.801 626.413L299.417 616.979Z" fill="#F9FAFB"/>
<path d="M359.264 573.24L354.452 584.368L347.221 574.636L359.264 573.24Z" fill="#F9FAFB"/>
<path d="M380.204 626.325L391.093 631.656L381.032 638.421L380.204 626.325Z" fill="#F9FAFB"/>
<path d="M313.809 643.907L324.698 649.238L314.637 656.003L313.809 643.907Z" fill="#F9FAFB"/>
<path d="M402.809 706.907L413.698 712.238L403.637 719.003L402.809 706.907Z" fill="#F9FAFB"/>
<circle cx="350.604" cy="612.761" r="6" transform="rotate(-35.2784 350.604 612.761)" fill="#F9FAFB"/>
<circle cx="376.655" cy="661.706" r="6" transform="rotate(-35.2784 376.655 661.706)" fill="#F9FAFB"/>
<circle cx="304.544" cy="592.675" r="6" transform="rotate(-35.2784 304.544 592.675)" fill="#F9FAFB"/>
<path d="M325.084 587.946L329.451 591.204L333.9 588.057L332.151 593.218L336.518 596.476L331.07 596.407L329.321 601.568L327.702 596.365L322.254 596.296L326.702 593.149L325.084 587.946Z" fill="#F9FAFB"/>
<path d="M269.749 613.618L274.117 616.876L278.565 613.729L276.816 618.889L281.184 622.148L275.736 622.079L273.987 627.24L272.368 622.036L266.919 621.968L271.368 618.821L269.749 613.618Z" fill="#F9FAFB"/>
<path d="M351.932 635.514L352.572 640.926L357.917 641.989L352.968 644.27L353.608 649.681L349.91 645.68L344.961 647.961L347.624 643.207L343.925 639.205L349.269 640.268L351.932 635.514Z" fill="#F9FAFB"/>
<path d="M315.471 673.755L312.268 678.163L315.471 682.572L310.289 680.888L307.086 685.297L307.086 679.848L301.904 678.164L307.086 676.48L307.086 671.031L310.289 675.439L315.471 673.755Z" fill="#F9FAFB"/>
<line x1="319.419" y1="619.852" x2="337.162" y2="629.349" stroke="#F9FAFB"/>
<line x1="294.871" y1="639.295" x2="283.159" y2="655.661" stroke="#F9FAFB"/>
<line x1="343.705" y1="567.569" x2="325.041" y2="575.095" stroke="#F9FAFB"/>
<line x1="376.619" y1="590.939" x2="380.337" y2="610.717" stroke="#F9FAFB"/>
<line x1="357.466" y1="664.269" x2="337.38" y2="665.513" stroke="#F9FAFB"/>
<path d="M244.901 527.091L232.802 527.884L238.164 517.01L244.901 527.091Z" fill="#F9FAFB"/>
<path d="M268.825 597.253L259.636 589.343L271.08 585.34L268.825 597.253Z" fill="#F9FAFB"/>
<path d="M307.23 566.53L298.041 558.62L309.485 554.617L307.23 566.53Z" fill="#F9FAFB"/>
<path d="M211.912 601.424L203.578 610.23L200.118 598.61L211.912 601.424Z" fill="#F9FAFB"/>
<circle cx="233.676" cy="577.209" r="6" transform="rotate(72.0549 233.676 577.209)" fill="#F9FAFB"/>
<circle cx="252.557" cy="624.561" r="6" transform="rotate(72.0549 252.557 624.561)" fill="#F9FAFB"/>
<circle cx="179.195" cy="587.494" r="6" transform="rotate(72.0549 179.195 587.494)" fill="#F9FAFB"/>
<circle cx="266.574" cy="539.225" r="6" transform="rotate(72.0549 266.574 539.225)" fill="#F9FAFB"/>
<path d="M264.971 560.241L260.559 563.439L262.238 568.623L257.833 565.416L253.422 568.615L255.11 563.434L250.705 560.227L256.154 560.232L257.843 555.051L259.522 560.235L264.971 560.241Z" fill="#F9FAFB"/>
<path d="M332.581 537.135L328.17 540.334L329.848 545.518L325.443 542.311L321.032 545.509L322.721 540.329L318.315 537.121L323.764 537.127L325.453 531.946L327.132 537.13L332.581 537.135Z" fill="#F9FAFB"/>
<path d="M256.949 499.768L252.538 502.967L254.217 508.151L249.812 504.943L245.4 508.142L247.089 502.961L242.684 499.754L248.133 499.76L249.822 494.579L251.5 499.763L256.949 499.768Z" fill="#F9FAFB"/>
<path d="M289.581 495.135L285.17 498.334L286.848 503.518L282.443 500.311L278.032 503.509L279.721 498.329L275.315 495.121L280.764 495.127L282.453 489.946L284.132 495.13L289.581 495.135Z" fill="#F9FAFB"/>
<path d="M211.561 571.695L206.204 570.694L203.597 575.479L202.894 570.076L197.538 569.075L202.459 566.736L201.756 561.332L205.501 565.291L210.423 562.952L207.816 567.737L211.561 571.695Z" fill="#F9FAFB"/>
<path d="M185.922 525.498L182.668 521.128L177.505 522.872L180.657 518.426L177.403 514.056L182.604 515.679L185.755 511.233L185.819 516.682L191.021 518.305L185.858 520.05L185.922 525.498Z" fill="#F9FAFB"/>
<line x1="236.2" y1="545.325" x2="221.848" y2="559.433" stroke="#F9FAFB"/>
<line x1="224.952" y1="516.098" x2="212.818" y2="500.043" stroke="#F9FAFB"/>
<line x1="278.871" y1="584.087" x2="277.247" y2="564.028" stroke="#F9FAFB"/>
<line x1="246.759" y1="608.543" x2="226.771" y2="606.2" stroke="#F9FAFB"/>
<line x1="182.464" y1="568.412" x2="187.26" y2="548.867" stroke="#F9FAFB"/>
<path d="M118.856 523.461L107.269 527.03L109.971 515.21L118.856 523.461Z" fill="#F9FAFB"/>
<path d="M217.208 536.945L205.621 540.514L208.324 528.695L217.208 536.945Z" fill="#F9FAFB"/>
<circle cx="119.523" cy="574.819" r="6" transform="rotate(58.687 119.523 574.819)" fill="#F9FAFB"/>
<circle cx="142.747" cy="530.256" r="6" transform="rotate(58.687 142.747 530.256)" fill="#F9FAFB"/>
<path d="M146.047 551.076L142.494 555.207L145.326 559.863L140.299 557.761L136.746 561.893L137.192 556.462L132.164 554.361L137.467 553.106L137.912 547.675L140.744 552.33L146.047 551.076Z" fill="#F9FAFB"/>
<path d="M222.713 460.408L219.161 464.539L221.993 469.195L216.965 467.093L213.413 471.225L213.858 465.794L208.831 463.693L214.133 462.438L214.578 457.007L217.41 461.662L222.713 460.408Z" fill="#F9FAFB"/>
<path d="M124.262 494.095L120.709 498.227L123.541 502.882L118.514 500.781L114.961 504.913L115.407 499.482L110.379 497.38L115.682 496.125L116.127 490.694L118.959 495.35L124.262 494.095Z" fill="#F9FAFB"/>
<path d="M96.7323 574.569L91.2897 574.834L89.8594 580.092L87.9259 574.997L82.4833 575.262L86.731 571.848L84.7975 566.754L89.3562 569.739L93.6039 566.326L92.1736 571.584L96.7323 574.569Z" fill="#F9FAFB"/>
<line x1="114.607" y1="543.215" x2="103.906" y2="560.259" stroke="#F9FAFB"/>
<line x1="96.9065" y1="517.382" x2="81.3898" y2="504.566" stroke="#F9FAFB"/>
<line x1="165.083" y1="571.061" x2="158.866" y2="551.92" stroke="#F9FAFB"/>
<line x1="67.6643" y1="578.102" x2="67.8115" y2="557.978" stroke="#F9FAFB"/>
<path d="M342.903 405.087L330.805 405.88L336.167 395.006L342.903 405.087Z" fill="#F9FAFB"/>
<path d="M366.827 475.249L357.638 467.339L369.083 463.336L366.827 475.249Z" fill="#F9FAFB"/>
<path d="M309.914 479.42L301.581 488.226L298.121 476.606L309.914 479.42Z" fill="#F9FAFB"/>
<circle cx="331.679" cy="455.205" r="6" transform="rotate(72.0549 331.679 455.205)" fill="#F9FAFB"/>
<path d="M279.046 471.2C275.894 472.221 272.51 470.493 271.489 467.34C270.468 464.188 272.196 460.804 275.349 459.783C278.501 458.762 281.885 460.49 282.906 463.643C283.927 466.795 282.199 470.179 279.046 471.2Z" fill="#F9FAFB"/>
<path d="M197 490.502C193.847 491.523 190.464 489.795 189.443 486.642C188.422 483.49 190.15 480.106 193.303 479.086C196.455 478.065 199.839 479.792 200.859 482.945C201.88 486.098 200.152 489.481 197 490.502Z" fill="#F9FAFB"/>
<circle cx="364.576" cy="417.221" r="6" transform="rotate(72.0549 364.576 417.221)" fill="#F9FAFB"/>
<path d="M362.973 438.237L358.562 441.435L360.241 446.619L355.835 443.412L351.424 446.611L353.113 441.43L348.708 438.223L354.157 438.228L355.845 433.047L357.524 438.231L362.973 438.237Z" fill="#F9FAFB"/>
<path d="M354.952 377.768L350.54 380.967L352.219 386.151L347.814 382.943L343.403 386.142L345.091 380.961L340.686 377.754L346.135 377.76L347.824 372.579L349.503 377.763L354.952 377.768Z" fill="#F9FAFB"/>
<path d="M309.563 449.695L304.207 448.694L301.6 453.479L300.896 448.076L295.54 447.075L300.462 444.736L299.759 439.332L303.504 443.291L308.425 440.952L305.818 445.737L309.563 449.695Z" fill="#F9FAFB"/>
<path d="M283.924 403.498L280.67 399.128L275.508 400.872L278.659 396.426L275.405 392.056L280.607 393.679L283.758 389.233L283.822 394.682L289.023 396.305L283.861 398.05L283.924 403.498Z" fill="#F9FAFB"/>
<line x1="334.202" y1="423.325" x2="319.851" y2="437.433" stroke="#F9FAFB"/>
<line x1="174.702" y1="494.357" x2="160.35" y2="508.465" stroke="#F9FAFB"/>
<line x1="322.954" y1="394.098" x2="310.821" y2="378.043" stroke="#F9FAFB"/>
<line x1="376.873" y1="462.083" x2="375.25" y2="442.024" stroke="#F9FAFB"/>
<line x1="344.761" y1="486.54" x2="324.774" y2="484.196" stroke="#F9FAFB"/>
<line x1="280.466" y1="446.408" x2="285.262" y2="426.863" stroke="#F9FAFB"/>
<path d="M465.906 387.087L453.808 387.88L459.17 377.006L465.906 387.087Z" fill="#F9FAFB"/>
<path d="M432.916 461.42L424.583 470.226L421.123 458.606L432.916 461.42Z" fill="#F9FAFB"/>
<circle cx="454.681" cy="437.205" r="6" transform="rotate(72.0549 454.681 437.205)" fill="#F9FAFB"/>
<circle cx="400.2" cy="447.49" r="6" transform="rotate(72.0549 400.2 447.49)" fill="#F9FAFB"/>
<circle cx="428.557" cy="397.557" r="6" transform="rotate(72.0549 428.557 397.557)" fill="#F9FAFB"/>
<path d="M477.954 359.768L473.543 362.967L475.222 368.151L470.816 364.943L466.405 368.142L468.094 362.961L463.689 359.754L469.138 359.76L470.826 354.579L472.505 359.763L477.954 359.768Z" fill="#F9FAFB"/>
<path d="M432.566 431.695L427.209 430.694L424.602 435.479L423.899 430.076L418.542 429.075L423.464 426.736L422.761 421.332L426.506 425.291L431.428 422.952L428.821 427.737L432.566 431.695Z" fill="#F9FAFB"/>
<path d="M406.927 385.498L403.673 381.128L398.51 382.872L401.662 378.426L398.407 374.056L403.609 375.679L406.76 371.233L406.824 376.682L412.026 378.305L406.863 380.05L406.927 385.498Z" fill="#F9FAFB"/>
<line x1="457.205" y1="405.325" x2="442.853" y2="419.433" stroke="#F9FAFB"/>
<line x1="445.957" y1="376.098" x2="433.823" y2="360.043" stroke="#F9FAFB"/>
<line x1="467.764" y1="468.54" x2="447.776" y2="466.196" stroke="#F9FAFB"/>
<line x1="403.469" y1="428.408" x2="408.264" y2="408.863" stroke="#F9FAFB"/>
<path d="M91.461 415.098L91.6161 427.221L81.0394 421.294L91.461 415.098Z" fill="#F9FAFB"/>
<path d="M162.784 394.904L154.402 403.663L151.007 392.024L162.784 394.904Z" fill="#F9FAFB"/>
<path d="M163.954 451.956L172.309 460.742L160.523 463.585L163.954 451.956Z" fill="#F9FAFB"/>
<circle cx="140.919" cy="428.947" r="6" transform="rotate(-14.926 140.919 428.947)" fill="#F9FAFB"/>
<circle cx="148.322" cy="483.897" r="6" transform="rotate(-14.926 148.322 483.897)" fill="#F9FAFB"/>
<circle cx="104.72" cy="394.096" r="6" transform="rotate(-14.926 104.72 394.096)" fill="#F9FAFB"/>
<path d="M125.623 396.803L128.585 401.376L133.85 399.973L130.416 404.203L133.377 408.777L128.293 406.818L124.858 411.048L125.15 405.607L120.066 403.647L125.331 402.244L125.623 396.803Z" fill="#F9FAFB"/>
<path d="M64.8143 401.627L67.7762 406.201L73.0414 404.797L69.6067 409.027L72.5686 413.601L67.484 411.642L64.0493 415.872L64.3415 410.431L59.2569 408.472L64.5221 407.068L64.8143 401.627Z" fill="#F9FAFB"/>
<path d="M134.25 450.743L132.969 456.039L137.61 458.895L132.177 459.312L130.895 464.608L128.819 459.57L123.386 459.988L127.536 456.457L125.46 451.419L130.1 454.274L134.25 450.743Z" fill="#F9FAFB"/>
<path d="M86.7668 473.913L82.2307 476.933L83.7006 482.18L79.4273 478.799L74.8913 481.818L76.7863 476.709L72.5129 473.328L77.9574 473.552L79.8524 468.443L81.3223 473.69L86.7668 473.913Z" fill="#F9FAFB"/>
<line x1="109.215" y1="424.747" x2="122.547" y2="439.821" stroke="#F9FAFB"/>
<line x1="184.375" y1="449.669" x2="197.707" y2="464.743" stroke="#F9FAFB"/>
<line x1="79.4363" y1="434.442" x2="62.7638" y2="445.712" stroke="#F9FAFB"/>
<line x1="150.168" y1="384.179" x2="130.051" y2="384.744" stroke="#F9FAFB"/>
<line x1="172.9" y1="417.534" x2="169.507" y2="437.37" stroke="#F9FAFB"/>
<line x1="129.438" y1="479.627" x2="110.173" y2="473.808" stroke="#F9FAFB"/>
<path d="M411.745 567.289L421.195 559.693L423.048 571.675L411.745 567.289Z" fill="#F9FAFB"/>
<path d="M351.874 523.58L363.939 524.78L356.867 534.628L351.874 523.58Z" fill="#F9FAFB"/>
<path d="M396.075 487.486L397.842 475.491L407.347 483.018L396.075 487.486Z" fill="#F9FAFB"/>
<circle cx="392.159" cy="519.808" r="6" transform="rotate(-142.986 392.159 519.808)" fill="#F9FAFB"/>
<circle cx="298.403" cy="524.402" r="6" transform="rotate(-142.986 298.403 524.402)" fill="#F9FAFB"/>
<circle cx="430.859" cy="480.105" r="6" transform="rotate(-142.986 430.859 480.105)" fill="#F9FAFB"/>
<circle cx="387.033" cy="569.796" r="6" transform="rotate(-142.986 387.033 569.796)" fill="#F9FAFB"/>
<path d="M376.279 551.668L378.054 546.517L373.703 543.236L379.151 543.333L380.927 538.181L382.518 543.392L387.967 543.489L383.502 546.613L385.094 551.825L380.743 548.544L376.279 551.668Z" fill="#F9FAFB"/>
<path d="M417.566 596.571L419.341 591.419L414.99 588.139L420.438 588.235L422.213 583.083L423.805 588.295L429.253 588.391L424.789 591.516L426.381 596.727L422.03 593.446L417.566 596.571Z" fill="#F9FAFB"/>
<path d="M413.43 511.622L418.39 509.366L417.778 503.951L421.456 507.972L426.416 505.716L423.729 510.456L427.407 514.477L422.069 513.386L419.382 518.127L418.769 512.712L413.43 511.622Z" fill="#F9FAFB"/>
<path d="M460.946 534.724L466.12 536.434L469.345 532.042L469.318 537.491L474.492 539.202L469.301 540.859L469.273 546.308L466.093 541.883L460.902 543.541L464.127 539.149L460.946 534.724Z" fill="#F9FAFB"/>
<line x1="408.398" y1="547.359" x2="412.048" y2="527.568" stroke="#F9FAFB"/>
<line x1="434.388" y1="564.833" x2="453.54" y2="571.012" stroke="#F9FAFB"/>
<line x1="351.207" y1="540.126" x2="364.053" y2="555.617" stroke="#F9FAFB"/>
<line x1="315.385" y1="499.677" x2="328.231" y2="515.168" stroke="#F9FAFB"/>
<line x1="363.456" y1="501.665" x2="381.166" y2="492.108" stroke="#F9FAFB"/>
<line x1="439.139" y1="497.604" x2="446.434" y2="516.36" stroke="#F9FAFB"/>
<path d="M199.498 842.47L211.198 845.648L202.596 854.192L199.498 842.47Z" fill="#F9FAFB"/>
<path d="M199.653 768.343L205.776 778.807L193.652 778.877L199.653 768.343Z" fill="#F9FAFB"/>
<path d="M254.837 782.877L265.578 777.254L265.078 789.368L254.837 782.877Z" fill="#F9FAFB"/>
<circle cx="226.389" cy="798.711" r="6" transform="rotate(-88.9963 226.389 798.711)" fill="#F9FAFB"/>
<circle cx="281.258" cy="806.672" r="6" transform="rotate(-88.9963 281.258 806.672)" fill="#F9FAFB"/>
<circle cx="182.94" cy="823.954" r="6" transform="rotate(-88.9963 182.94 823.954)" fill="#F9FAFB"/>
<path d="M191.28 804.595L196.491 803.002L196.587 797.554L199.712 802.018L204.923 800.425L201.643 804.776L204.769 809.24L199.617 807.466L196.337 811.818L196.432 806.369L191.28 804.595Z" fill="#F9FAFB"/>
<path d="M214.131 724.497L219.342 722.904L219.438 717.456L222.563 721.92L227.774 720.327L224.495 724.679L227.62 729.143L222.468 727.368L219.188 731.72L219.283 726.272L214.131 724.497Z" fill="#F9FAFB"/>
<path d="M179.231 864.396L184.442 862.803L184.538 857.355L187.663 861.818L192.874 860.226L189.594 864.577L192.719 869.041L187.567 867.267L184.288 871.618L184.383 866.17L179.231 864.396Z" fill="#F9FAFB"/>
<path d="M245.516 811.104L250.257 813.79L254.277 810.111L253.187 815.45L257.928 818.137L252.514 818.75L251.424 824.089L249.168 819.129L243.753 819.743L247.773 816.064L245.516 811.104Z" fill="#F9FAFB"/>
<path d="M254.764 863.123L256.423 868.313L261.872 868.34L257.448 871.521L259.106 876.712L254.714 873.487L250.29 876.669L251.999 871.494L247.606 868.27L253.055 868.297L254.764 863.123Z" fill="#F9FAFB"/>
<line x1="213.649" y1="828.045" x2="231.804" y2="819.362" stroke="#F9FAFB"/>
<line x1="214.797" y1="859.341" x2="221.06" y2="878.466" stroke="#F9FAFB"/>
<line x1="254.475" y1="934.848" x2="260.737" y2="953.974" stroke="#F9FAFB"/>
<line x1="185.877" y1="777.53" x2="180.899" y2="797.029" stroke="#F9FAFB"/>
<line x1="224.19" y1="764.823" x2="242.334" y2="773.529" stroke="#F9FAFB"/>
<line x1="271.97" y1="823.661" x2="261.087" y2="840.589" stroke="#F9FAFB"/>
<path d="M305.081 742.183L310.416 753.07L298.32 752.246L305.081 742.183Z" fill="#F9FAFB"/>
<path d="M360.871 693.373L357.051 704.879L348.996 695.817L360.871 693.373Z" fill="#F9FAFB"/>
<path d="M386.375 744.421L397.689 748.779L388.258 756.398L386.375 744.421Z" fill="#F9FAFB"/>
<circle cx="355.703" cy="733.5" r="6" transform="rotate(-40.298 355.703 733.5)" fill="#F9FAFB"/>
<circle cx="385.936" cy="779.977" r="6" transform="rotate(-40.298 385.936 779.977)" fill="#F9FAFB"/>
<circle cx="435.456" cy="820.461" r="6" transform="rotate(-40.298 435.456 820.461)" fill="#F9FAFB"/>
<circle cx="308.062" cy="717.524" r="6" transform="rotate(-40.298 308.062 717.524)" fill="#F9FAFB"/>
<path d="M328.108 711.013L332.744 713.876L336.9 710.352L335.61 715.646L340.246 718.509L334.812 718.918L333.521 724.212L331.454 719.17L326.02 719.578L330.176 716.054L328.108 711.013Z" fill="#F9FAFB"/>
<path d="M275.232 741.427L279.868 744.29L284.024 740.766L282.734 746.06L287.37 748.923L281.936 749.332L280.645 754.626L278.578 749.584L273.144 749.992L277.3 746.468L275.232 741.427Z" fill="#F9FAFB"/>
<path d="M359.016 756.052L360.127 761.387L365.544 761.979L360.814 764.684L361.925 770.019L357.891 766.356L353.161 769.061L355.397 764.092L351.363 760.43L356.779 761.021L359.016 756.052Z" fill="#F9FAFB"/>
<path d="M326.041 797.334L323.236 802.006L326.812 806.117L321.503 804.893L318.698 809.565L318.221 804.137L312.911 802.913L317.926 800.782L317.449 795.354L321.026 799.465L326.041 797.334Z" fill="#F9FAFB"/>
<line x1="325.257" y1="743.294" x2="343.763" y2="751.202" stroke="#F9FAFB"/>
<line x1="302.504" y1="764.809" x2="292.269" y2="782.137" stroke="#F9FAFB"/>
<line x1="344.876" y1="689.086" x2="326.941" y2="698.216" stroke="#F9FAFB"/>
<line x1="379.708" y1="709.486" x2="385.143" y2="728.863" stroke="#F9FAFB"/>
<line x1="367.044" y1="784.213" x2="347.144" y2="787.211" stroke="#F9FAFB"/>
<path d="M324.455 911.885L336.434 910.014L332.065 921.324L324.455 911.885Z" fill="#F9FAFB"/>
<path d="M379.523 944.533L391.502 942.663L387.132 953.972L379.523 944.533Z" fill="#F9FAFB"/>
<path d="M294.363 844.139L304.222 851.197L293.18 856.206L294.363 844.139Z" fill="#F9FAFB"/>
<path d="M350.677 834.903L358.19 825.387L362.674 836.652L350.677 834.903Z" fill="#F9FAFB"/>
<path d="M398.589 832.68L406.102 823.164L410.586 834.429L398.589 832.68Z" fill="#F9FAFB"/>
<path d="M426.589 911.684L434.102 902.168L438.586 913.433L426.589 911.684Z" fill="#F9FAFB"/>
<circle cx="331.161" cy="860.965" r="6" transform="rotate(-113.067 331.161 860.965)" fill="#F9FAFB"/>
<circle cx="286.871" cy="945.871" r="6" transform="rotate(-113.067 286.871 945.871)" fill="#F9FAFB"/>
<circle cx="251.871" cy="895.871" r="6" transform="rotate(-113.067 251.871 895.871)" fill="#F9FAFB"/>
<circle cx="410.871" cy="927.875" r="6" transform="rotate(-113.067 410.871 927.875)" fill="#F9FAFB"/>
<circle cx="407.871" cy="880.875" r="6" transform="rotate(-113.067 407.871 880.875)" fill="#F9FAFB"/>
<circle cx="384.506" cy="845.855" r="6" transform="rotate(-113.067 384.506 845.855)" fill="#F9FAFB"/>
<circle cx="301.786" cy="901.734" r="6" transform="rotate(-113.067 301.786 901.734)" fill="#F9FAFB"/>
<path d="M301.506 880.658L305.614 877.079L303.479 872.065L308.153 874.866L312.262 871.286L311.042 876.597L315.716 879.398L310.288 879.88L309.069 885.19L306.934 880.177L301.506 880.658Z" fill="#F9FAFB"/>
<path d="M426.939 859.779L431.047 856.2L428.912 851.186L433.586 853.987L437.694 850.407L436.475 855.718L441.149 858.519L435.721 859.001L434.501 864.311L432.366 859.298L426.939 859.779Z" fill="#F9FAFB"/>
<path d="M314.894 940.17L319.002 936.59L316.867 931.577L321.541 934.378L325.65 930.798L324.43 936.109L329.104 938.91L323.676 939.391L322.457 944.702L320.322 939.689L314.894 940.17Z" fill="#F9FAFB"/>
<path d="M423.938 949.783L428.046 946.204L425.911 941.19L430.585 943.991L434.694 940.411L433.474 945.722L438.148 948.523L432.72 949.005L431.501 954.315L429.366 949.302L423.938 949.783Z" fill="#F9FAFB"/>
<path d="M353.68 864.48L359.104 864.998L361.274 860L362.457 865.319L367.881 865.838L363.188 868.606L364.37 873.925L360.287 870.317L355.594 873.086L357.763 868.088L353.68 864.48Z" fill="#F9FAFB"/>
<path d="M383.341 908.201L386.972 912.264L391.958 910.066L389.216 914.775L392.848 918.838L387.522 917.685L384.78 922.394L384.23 916.973L378.904 915.82L383.89 913.622L383.341 908.201Z" fill="#F9FAFB"/>
<line x1="331.494" y1="892.942" x2="344.528" y2="877.609" stroke="#F9FAFB"/>
<line x1="425.619" y1="893.008" x2="438.654" y2="877.675" stroke="#F9FAFB"/>
<line x1="345.306" y1="921.047" x2="358.824" y2="935.955" stroke="#F9FAFB"/>
<line x1="285.533" y1="858.15" x2="288.94" y2="877.984" stroke="#F9FAFB"/>
<line x1="315.333" y1="830.922" x2="335.45" y2="831.471" stroke="#F9FAFB"/>
<line x1="382.954" y1="865.153" x2="379.922" y2="885.048" stroke="#F9FAFB"/>
<path d="M350.995 967.772L346.583 970.971L348.262 976.155L343.857 972.947L339.445 976.146L341.134 970.965L336.729 967.758L342.178 967.763L343.867 962.583L345.546 967.767L350.995 967.772Z" fill="#F9FAFB"/>
<line x1="318.997" y1="984.102" x2="306.864" y2="968.047" stroke="#F9FAFB"/>
<path d="M461.949 977.091L449.85 977.884L455.212 967.01L461.949 977.091Z" fill="#F9FAFB"/>
<path d="M473.997 949.772L469.586 952.971L471.264 958.155L466.859 954.947L462.448 958.146L464.137 952.965L459.731 949.758L465.18 949.763L466.869 944.583L468.548 949.767L473.997 949.772Z" fill="#F9FAFB"/>
<path d="M402.97 975.502L399.715 971.132L394.553 972.876L397.704 968.43L394.45 964.06L399.652 965.683L402.803 961.237L402.867 966.686L408.068 968.309L402.906 970.054L402.97 975.502Z" fill="#F9FAFB"/>
<line x1="441.999" y1="966.102" x2="429.866" y2="950.047" stroke="#F9FAFB"/>
<circle cx="100.763" cy="984.1" r="6" transform="rotate(-14.926 100.763 984.1)" fill="#F9FAFB"/>
<line x1="146.21" y1="974.183" x2="126.094" y2="974.748" stroke="#F9FAFB"/>
<circle cx="62.5568" cy="969.557" r="6" transform="rotate(72.0549 62.5568 969.557)" fill="#F9FAFB"/>
<path d="M225.652 980.47L213.554 981.263L218.916 970.389L225.652 980.47Z" fill="#F9FAFB"/>
<path d="M459.944 675.135L457.359 663.289L468.91 666.973L459.944 675.135Z" fill="#F9FAFB"/>
<circle cx="408.713" cy="671.496" r="6" transform="rotate(153.495 408.713 671.496)" fill="#F9FAFB"/>
<circle cx="451.17" cy="698.375" r="6" transform="rotate(153.495 451.17 698.375)" fill="#F9FAFB"/>
<path d="M430.149 699.917L426.33 696.031L421.453 698.463L423.969 693.629L420.149 689.743L425.524 690.642L428.04 685.808L428.845 691.198L434.22 692.096L429.343 694.528L430.149 699.917Z" fill="#F9FAFB"/>
<path d="M410.871 648.807L411.064 643.361L405.944 641.495L411.183 639.995L411.375 634.55L414.421 639.069L419.659 637.569L416.302 641.861L419.348 646.38L414.228 644.514L410.871 648.807Z" fill="#F9FAFB"/>
<line x1="440.615" y1="669.247" x2="424.528" y2="657.156" stroke="#F9FAFB"/>
<line x1="390.786" y1="692.49" x2="374.7" y2="680.398" stroke="#F9FAFB"/>
<line x1="409.788" y1="619.545" x2="429.829" y2="621.379" stroke="#F9FAFB"/>
<circle cx="78" cy="96" r="6" fill="#F9FAFB"/>
</svg>
