<svg width="156" height="156" viewBox="0 0 156 156" fill="none" xmlns="http://www.w3.org/2000/svg">
<path d="M78 0L92.1315 25.2605L117 10.45L116.608 39.392L145.55 39L130.74 63.8685L156 78L130.74 92.1315L145.55 117L116.608 116.608L117 145.55L92.1315 130.74L78 156L63.8685 130.74L39 145.55L39.392 116.608L10.45 117L25.2605 92.1315L0 78L25.2605 63.8685L10.45 39L39.392 39.392L39 10.45L63.8685 25.2605L78 0Z" fill="#C4C4C4"/>
<path d="M78 0L92.1315 25.2605L117 10.45L116.608 39.392L145.55 39L130.74 63.8685L156 78L130.74 92.1315L145.55 117L116.608 116.608L117 145.55L92.1315 130.74L78 156L63.8685 130.74L39 145.55L39.392 116.608L10.45 117L25.2605 92.1315L0 78L25.2605 63.8685L10.45 39L39.392 39.392L39 10.45L63.8685 25.2605L78 0Z" fill="url(#paint0_linear)"/>
<defs>
<linearGradient id="paint0_linear" x1="19.2468" y1="27.3506" x2="129.662" y2="137.766" gradientUnits="userSpaceOnUse">
<stop stop-color="#CA34FF"/>
<stop offset="1" stop-color="#02D87E"/>
</linearGradient>
</defs>
</svg>
