<svg width="335" height="173" viewBox="0 0 335 173" fill="none" xmlns="http://www.w3.org/2000/svg">
<g clip-path="url(#clip0)">
<path d="M167.5 154.631C260.008 154.631 335 152.535 335 149.948C335 147.362 260.008 145.266 167.5 145.266C74.9923 145.266 0 147.362 0 149.948C0 152.535 74.9923 154.631 167.5 154.631Z" fill="#E6E6E6"/>
<path d="M256.766 99.208C256.554 99.2109 256.343 99.2138 256.128 99.2138C255.914 99.2138 255.703 99.2109 255.491 99.208C244.279 98.9532 236.152 91.9513 238.22 84.6048L243.265 66.6831L244.539 62.1484L267.138 62.5335L268.511 66.9698L273.918 84.4311C276.207 91.8181 268.08 98.9532 256.766 99.208Z" fill="#3F3D56"/>
<path opacity="0.2" d="M268.511 66.9698C264.658 69.1712 260.287 70.3053 255.849 70.2549C251.411 70.2045 247.067 68.9715 243.264 66.6831L244.539 62.1484L267.138 62.5335L268.511 66.9698Z" fill="black"/>
<path d="M267.557 85.1991C268.534 81.5627 271.742 76.317 280.74 69.9922C296.433 58.9602 287.072 50.6883 286.666 50.3417C285.815 49.6147 285.941 48.7984 286.958 48.5195C287.549 48.4014 288.159 48.411 288.746 48.5475C289.333 48.6841 289.884 48.9446 290.362 49.3114C290.87 49.7315 302.593 59.7366 284.885 72.1836C268.948 83.3871 272.336 90.7004 272.375 90.7706C272.802 91.5528 272.118 92.1786 270.844 92.1702C269.571 92.1618 268.192 91.5214 267.764 90.7401C267.674 90.5748 266.648 88.5844 267.557 85.1991Z" fill="#3F3D56"/>
<path d="M245.698 101.818C245.356 101.818 245.017 101.751 244.7 101.62C244.384 101.489 244.096 101.297 243.854 101.055C243.612 100.813 243.42 100.526 243.289 100.209C243.158 99.8932 243.091 99.5543 243.091 99.212V87.9187C243.091 87.2275 243.365 86.5646 243.854 86.0758C244.343 85.5871 245.007 85.3125 245.698 85.3125C246.39 85.3125 247.053 85.5871 247.542 86.0758C248.031 86.5646 248.306 87.2275 248.306 87.9187V99.212C248.306 99.5543 248.238 99.8932 248.107 100.209C247.976 100.526 247.784 100.813 247.542 101.055C247.3 101.297 247.012 101.489 246.696 101.62C246.38 101.751 246.041 101.818 245.698 101.818Z" fill="#3F3D56"/>
<path d="M247.984 75.0084C247.841 75.3193 247.638 75.599 247.387 75.8315C247.136 76.064 246.841 76.2448 246.52 76.3635C246.199 76.4822 245.857 76.5365 245.515 76.5233C245.173 76.5101 244.837 76.4297 244.526 76.2866L234.261 71.5663C233.633 71.277 233.146 70.7505 232.907 70.1025C232.667 69.4545 232.695 68.7381 232.984 68.1106C233.273 67.4831 233.799 66.9959 234.447 66.756C235.095 66.5161 235.812 66.5431 236.44 66.8312L246.705 71.5515C247.016 71.6945 247.296 71.8974 247.529 72.1485C247.762 72.3997 247.942 72.6942 248.061 73.0152C248.18 73.3362 248.234 73.6774 248.221 74.0194C248.208 74.3614 248.127 74.6974 247.984 75.0084Z" fill="#3F3D56"/>
<path d="M264.272 75.0056C264.416 75.3165 264.619 75.5962 264.87 75.8287C265.121 76.0612 265.416 76.242 265.737 76.3607C266.058 76.4794 266.399 76.5337 266.742 76.5205C267.084 76.5074 267.42 76.4269 267.731 76.2839L277.996 71.5636C278.624 71.2747 279.112 70.7482 279.352 70.0999C279.592 69.4516 279.564 68.7346 279.275 68.1067C278.986 67.4788 278.459 66.9913 277.811 66.7516C277.162 66.5119 276.445 66.5395 275.816 66.8284L265.551 71.5487C265.24 71.6917 264.96 71.8946 264.728 72.1458C264.495 72.3969 264.314 72.6914 264.196 73.0124C264.077 73.3334 264.022 73.6746 264.036 74.0166C264.049 74.3586 264.129 74.6947 264.272 75.0056Z" fill="#3F3D56"/>
<path d="M266.558 101.818C266.901 101.818 267.24 101.751 267.556 101.62C267.873 101.489 268.16 101.297 268.402 101.055C268.644 100.813 268.837 100.526 268.968 100.209C269.099 99.8932 269.166 99.5543 269.166 99.212V87.9187C269.166 87.2275 268.891 86.5646 268.402 86.0758C267.913 85.5871 267.25 85.3125 266.558 85.3125C265.867 85.3125 265.204 85.5871 264.715 86.0758C264.226 86.5646 263.951 87.2275 263.951 87.9187V99.212C263.951 99.5543 264.018 99.8932 264.149 100.209C264.28 100.526 264.473 100.813 264.715 101.055C264.957 101.297 265.244 101.489 265.561 101.62C265.877 101.751 266.216 101.818 266.558 101.818Z" fill="#3F3D56"/>
<path d="M277.456 28.7087C277.681 28.4251 277.844 28.0969 277.933 27.7458C278.022 27.3947 278.036 27.0287 277.973 26.6719L276.554 18.3277L275.135 9.98352C275.058 9.53299 274.864 9.11055 274.573 8.75868C274.281 8.4068 273.902 8.13788 273.473 7.97894C273.044 7.82 272.581 7.77664 272.13 7.85322C271.68 7.92981 271.257 8.12364 270.905 8.41523L264.384 13.8157L260.456 17.0693C257.836 16.6037 255.158 16.5633 252.526 16.9498L248.741 13.8157L242.221 8.41523C241.869 8.12364 241.446 7.92981 240.995 7.85323C240.545 7.77665 240.082 7.82 239.653 7.97894C239.224 8.13788 238.845 8.4068 238.553 8.75868C238.261 9.11056 238.068 9.53299 237.991 9.98352L236.572 18.3277L235.153 26.6719C235.077 27.1105 235.116 27.5612 235.266 27.9801C232.834 31.7066 231.445 36.0163 231.245 40.4609C231.044 44.9056 232.038 49.3228 234.124 53.2531C236.211 57.1835 239.312 60.4833 243.107 62.8094C246.902 65.1356 251.251 66.403 255.702 66.4798C260.153 66.5567 264.543 65.4402 268.416 63.2465C272.288 61.0528 275.502 57.862 277.723 54.0061C279.944 50.1501 281.091 45.7698 281.044 41.3209C280.996 36.872 279.758 32.5169 277.456 28.7087Z" fill="#3F3D56"/>
<path d="M241.567 11.832C241.413 11.8323 241.259 11.8601 241.114 11.9142C240.902 11.9917 240.713 12.1245 240.568 12.2989C240.424 12.4733 240.328 12.6831 240.291 12.9066L238.57 23.0256C238.533 23.2486 238.554 23.4777 238.633 23.6899C238.712 23.902 238.845 24.0897 239.019 24.234C239.193 24.3784 239.403 24.4743 239.626 24.5122C239.849 24.5501 240.078 24.5287 240.29 24.45L249.919 20.8801C250.131 20.8014 250.319 20.6683 250.463 20.4941C250.608 20.3199 250.704 20.1108 250.742 19.8877C250.78 19.6647 250.758 19.4356 250.679 19.2235C250.601 19.0114 250.467 18.8238 250.293 18.6794L250.293 18.6791L242.386 12.1302C242.156 11.9381 241.867 11.8326 241.567 11.832Z" fill="#E6E6E6"/>
<path d="M271.558 11.832C271.259 11.8326 270.969 11.9381 270.74 12.1302L262.833 18.6794C262.658 18.8238 262.525 19.0114 262.446 19.2235C262.368 19.4356 262.346 19.6647 262.384 19.8877C262.422 20.1108 262.518 20.3199 262.663 20.4941C262.807 20.6683 262.995 20.8014 263.207 20.8801L272.835 24.45C273.048 24.5287 273.277 24.5501 273.5 24.5122C273.723 24.4743 273.932 24.3784 274.107 24.234C274.281 24.0897 274.414 23.902 274.493 23.6899C274.572 23.4777 274.593 23.2486 274.555 23.0256L272.834 12.9066C272.798 12.6831 272.702 12.4733 272.557 12.2989C272.413 12.1245 272.224 11.9917 272.011 11.9142C271.866 11.8601 271.713 11.8323 271.558 11.832Z" fill="#E6E6E6"/>
<path d="M256.128 48.5396C258.048 48.5396 259.605 46.9838 259.605 45.0647C259.605 43.1456 258.048 41.5898 256.128 41.5898C254.208 41.5898 252.652 43.1456 252.652 45.0647C252.652 46.9838 254.208 48.5396 256.128 48.5396Z" fill="#E6E6E6"/>
<path d="M256.128 44.1945C257.408 44.1945 258.446 43.8055 258.446 43.3258C258.446 42.846 257.408 42.457 256.128 42.457C254.848 42.457 253.811 42.846 253.811 43.3258C253.811 43.8055 254.848 44.1945 256.128 44.1945Z" fill="#3F3D56"/>
<path d="M254.39 47.0898H257.577V50.9991C257.577 51.2082 257.536 51.4153 257.456 51.6086C257.376 51.8018 257.258 51.9774 257.11 52.1253C256.962 52.2731 256.787 52.3905 256.593 52.4705C256.4 52.5505 256.193 52.5917 255.983 52.5917C255.561 52.5917 255.155 52.4239 254.857 52.1253C254.558 51.8266 254.39 51.4215 254.39 50.9991V47.0898H254.39Z" fill="#FF6584"/>
<path d="M256.322 7.67578C256.155 8.02216 255.992 8.37229 255.84 8.72957C254.042 12.9208 253.435 17.5265 254.087 22.0399C254.414 21.5668 254.756 21.074 255.105 20.5758C254.358 16.244 254.778 11.7917 256.322 7.67578Z" fill="#3F3D56"/>
<path d="M258.929 10.8594C258.762 11.2058 258.6 11.5559 258.447 11.9132C256.649 16.1043 256.043 20.7101 256.695 25.2235C257.021 24.7505 257.364 24.2576 257.713 23.7594C256.966 19.4276 257.386 14.9753 258.929 10.8594Z" fill="#3F3D56"/>
<path d="M266.969 73.3963L266.601 68.7272L266.234 64.0582C266.214 63.8061 266.128 63.5636 265.985 63.3552C265.842 63.1468 265.646 62.9797 265.418 62.8709C265.189 62.762 264.936 62.7151 264.684 62.7349C264.432 62.7548 264.189 62.8406 263.981 62.9838L260.119 65.6363L257.298 67.5732C257.118 67.3623 256.894 67.1929 256.642 67.0768C256.39 66.9607 256.116 66.9005 255.839 66.9005C255.561 66.9005 255.287 66.9607 255.035 67.0768C254.783 67.1929 254.559 67.3623 254.379 67.5732L251.558 65.6363L247.696 62.9838C247.488 62.8406 247.245 62.7547 246.993 62.7349C246.741 62.7151 246.488 62.762 246.26 62.8708C246.031 62.9797 245.836 63.1468 245.692 63.3552C245.549 63.5636 245.463 63.806 245.443 64.0581L245.076 68.7272L244.709 73.3962C244.689 73.6483 244.736 73.9012 244.845 74.1294C244.954 74.3577 245.121 74.5532 245.329 74.6964C245.538 74.8397 245.78 74.9255 246.032 74.9453C246.285 74.9651 246.538 74.9182 246.766 74.8094L250.995 72.7928L254.47 71.1359C254.649 71.3169 254.862 71.4607 255.097 71.5589C255.332 71.657 255.584 71.7075 255.839 71.7075C256.093 71.7075 256.345 71.657 256.58 71.5589C256.815 71.4607 257.028 71.3169 257.207 71.1359L260.682 72.7928L264.911 74.8094C265.139 74.9183 265.392 74.9651 265.645 74.9453C265.897 74.9255 266.139 74.8397 266.348 74.6965C266.556 74.5532 266.724 74.3577 266.832 74.1295C266.941 73.9012 266.988 73.6484 266.969 73.3963Z" fill="white"/>
<path d="M251.493 42.1671C251.973 42.1671 252.362 41.7782 252.362 41.2984C252.362 40.8186 251.973 40.4297 251.493 40.4297C251.013 40.4297 250.624 40.8186 250.624 41.2984C250.624 41.7782 251.013 42.1671 251.493 42.1671Z" fill="#E6E6E6"/>
<path d="M260.764 42.1671C261.244 42.1671 261.633 41.7782 261.633 41.2984C261.633 40.8186 261.244 40.4297 260.764 40.4297C260.284 40.4297 259.895 40.8186 259.895 41.2984C259.895 41.7782 260.284 42.1671 260.764 42.1671Z" fill="#E6E6E6"/>
<path d="M87.9536 91.5322C88.1651 91.5351 88.3766 91.538 88.591 91.538C88.8054 91.538 89.0169 91.5351 89.2284 91.5322C100.441 91.2774 108.568 84.2755 106.499 76.9291L101.455 59.0074L100.18 54.4727L77.5814 54.8578L76.208 59.294L70.8017 76.7553C68.5129 84.1423 76.6397 91.2774 87.9536 91.5322Z" fill="#3F3D56"/>
<path opacity="0.2" d="M76.2083 59.294C80.0615 61.4955 84.4326 62.6295 88.8707 62.5791C93.3087 62.5287 97.653 61.2957 101.455 59.0074L100.18 54.4727L77.5816 54.8578L76.2083 59.294Z" fill="black"/>
<path d="M74.4172 75.4001C71.978 72.531 66.8322 69.162 55.9917 67.2937C37.0851 64.0339 42.0047 52.554 42.223 52.0672C42.6809 51.0462 42.2178 50.3622 41.1787 50.5453C40.5939 50.6913 40.0471 50.9606 39.575 51.3352C39.1028 51.7097 38.7162 52.1808 38.4411 52.7168C38.1617 53.3138 31.8502 67.3701 53.184 71.0467C72.3845 74.3571 72.453 82.4163 72.4479 82.4963C72.3968 83.3859 73.2836 83.6587 74.4308 83.1066C75.5779 82.5544 76.5503 81.3859 76.603 80.4964C76.6137 80.3085 76.6884 78.0709 74.4172 75.4001Z" fill="#3F3D56"/>
<path d="M99.0214 94.1432C99.3638 94.1432 99.7029 94.0758 100.019 93.9448C100.336 93.8138 100.623 93.6219 100.865 93.3799C101.107 93.1379 101.299 92.8505 101.43 92.5344C101.561 92.2182 101.629 91.8793 101.629 91.537V80.2437C101.628 79.553 101.353 78.8909 100.864 78.4028C100.375 77.9148 99.7124 77.6406 99.0214 77.6406C98.3303 77.6406 97.6676 77.9148 97.1787 78.4028C96.6897 78.8909 96.4146 79.553 96.4138 80.2437V91.537C96.4138 91.8793 96.4812 92.2182 96.6123 92.5344C96.7433 92.8505 96.9354 93.1379 97.1775 93.3799C97.4197 93.6219 97.7071 93.8138 98.0235 93.9448C98.3399 94.0758 98.6789 94.1432 99.0214 94.1432Z" fill="#3F3D56"/>
<path d="M96.7351 67.331C96.8782 67.6419 97.0812 67.9216 97.3324 68.1541C97.5837 68.3866 97.8784 68.5674 98.1995 68.6861C98.5207 68.8048 98.8621 68.8591 99.2043 68.8459C99.5465 68.8327 99.8827 68.7523 100.194 68.6093L110.459 63.889C110.77 63.7462 111.051 63.5434 111.284 63.2923C111.516 63.0411 111.698 62.7466 111.817 62.4254C111.936 62.1043 111.99 61.7628 111.977 61.4206C111.964 61.0783 111.884 60.7421 111.74 60.4309C111.597 60.1198 111.394 59.8399 111.142 59.6073C110.891 59.3747 110.596 59.194 110.275 59.0754C109.953 58.9567 109.611 58.9026 109.269 58.9161C108.927 58.9295 108.59 59.0103 108.279 59.1538L98.014 63.8741C97.7029 64.0171 97.4231 64.22 97.1905 64.4712C96.9578 64.7223 96.777 65.0168 96.6582 65.3378C96.5394 65.6588 96.4851 66 96.4983 66.342C96.5115 66.684 96.5919 67.0201 96.7351 67.331Z" fill="#3F3D56"/>
<path d="M80.4471 67.331C80.304 67.6419 80.101 67.9216 79.8497 68.1541C79.5984 68.3866 79.3038 68.5674 78.9826 68.6861C78.6614 68.8048 78.32 68.8591 77.9778 68.8459C77.6357 68.8327 77.2994 68.7523 76.9883 68.6093L66.7233 63.889C66.4119 63.7462 66.1316 63.5434 65.8986 63.2923C65.6656 63.0411 65.4845 62.7466 65.3655 62.4254C65.2464 62.1043 65.1919 61.7628 65.205 61.4206C65.2181 61.0783 65.2986 60.7421 65.4418 60.4309C65.585 60.1198 65.7882 59.8399 66.0397 59.6073C66.2912 59.3747 66.5861 59.194 66.9076 59.0754C67.229 58.9567 67.5707 58.9026 67.9131 58.9161C68.2555 58.9295 68.5919 59.0103 68.9031 59.1538L79.1681 63.8741C79.4792 64.0171 79.7591 64.22 79.9917 64.4712C80.2243 64.7223 80.4052 65.0168 80.5239 65.3378C80.6427 65.6588 80.6971 66 80.6839 66.342C80.6707 66.684 80.5902 67.0201 80.4471 67.331Z" fill="#3F3D56"/>
<path d="M78.161 94.1432C77.8186 94.1432 77.4795 94.0758 77.1631 93.9448C76.8468 93.8138 76.5593 93.6219 76.3172 93.3799C76.075 93.1379 75.883 92.8505 75.7519 92.5344C75.6209 92.2182 75.5535 91.8793 75.5535 91.537V80.2437C75.5543 79.553 75.8294 78.8909 76.3183 78.4028C76.8072 77.9148 77.47 77.6406 78.161 77.6406C78.852 77.6406 79.5148 77.9148 80.0037 78.4028C80.4926 78.8909 80.7677 79.553 80.7686 80.2437V91.537C80.7686 91.8793 80.7011 92.2182 80.5701 92.5344C80.4391 92.8505 80.247 93.1379 80.0048 93.3799C79.7627 93.6219 79.4753 93.8138 79.1589 93.9448C78.8425 94.0758 78.5034 94.1432 78.161 94.1432Z" fill="#3F3D56"/>
<path d="M109.453 20.3044C109.604 19.8854 109.643 19.4347 109.567 18.9962L108.148 10.652L106.729 2.30775C106.652 1.85722 106.458 1.43479 106.166 1.08291C105.874 0.731034 105.495 0.462115 105.067 0.303174C104.638 0.144233 104.175 0.100871 103.724 0.177455C103.273 0.254038 102.851 0.447869 102.499 0.739457L95.978 6.13994L92.1939 9.27401C89.5611 8.88755 86.8833 8.9279 84.2634 9.39352L80.335 6.13992L73.8144 0.739445C73.4623 0.447856 73.0397 0.254028 72.5889 0.177443C72.1381 0.100859 71.6751 0.144216 71.2464 0.303157C70.8178 0.462098 70.4385 0.731022 70.1467 1.0829C69.855 1.43478 69.6611 1.85721 69.5844 2.30774L68.1653 10.652L66.7461 18.9962C66.6835 19.353 66.6972 19.7189 66.7864 20.07C66.8756 20.4211 67.0383 20.7493 67.2636 21.0329C64.9589 24.842 63.7176 29.1988 63.669 33.65C63.6204 38.1012 64.7662 42.4841 66.9873 46.3425C69.2083 50.2009 72.4234 53.3939 76.298 55.5892C80.1725 57.7845 84.5649 58.9018 89.0181 58.8249C93.4712 58.748 97.8224 57.4797 101.619 55.1519C105.415 52.8242 108.518 49.5221 110.604 45.5893C112.691 41.6564 113.684 37.2366 113.482 32.7898C113.279 28.343 111.888 24.0316 109.453 20.3044H109.453Z" fill="#3F3D56"/>
<path d="M102.334 4.45445L94.4265 11.0034L94.4264 11.0036C94.2521 11.148 94.1189 11.3356 94.0402 11.5478C93.9615 11.7599 93.94 11.9889 93.978 12.212C94.0159 12.435 94.1119 12.6441 94.2563 12.8183C94.4007 12.9925 94.5885 13.1256 94.8007 13.2043L104.429 16.7742C104.641 16.8529 104.871 16.8743 105.094 16.8364C105.317 16.7985 105.526 16.7026 105.7 16.5582C105.875 16.4139 106.008 16.2262 106.087 16.0141C106.165 15.8019 106.187 15.5728 106.149 15.3498L104.428 5.23083C104.391 5.00727 104.296 4.79751 104.151 4.62309C104.006 4.44867 103.818 4.31589 103.605 4.2384C103.46 4.18429 103.307 4.15647 103.152 4.15625C102.853 4.15681 102.563 4.26234 102.334 4.45445Z" fill="#E6E6E6"/>
<path d="M72.708 4.2384C72.495 4.31589 72.3065 4.44867 72.1618 4.62309C72.0172 4.7975 71.9216 5.00727 71.8849 5.23083L70.164 15.3498C70.1261 15.5728 70.1475 15.8019 70.2263 16.0141C70.305 16.2262 70.4382 16.4139 70.6126 16.5582C70.7869 16.7026 70.9961 16.7985 71.2193 16.8364C71.4425 16.8743 71.6717 16.8529 71.884 16.7742L81.5123 13.2043C81.7245 13.1256 81.9123 12.9925 82.0567 12.8183C82.2011 12.6441 82.2971 12.435 82.335 12.212C82.373 11.9889 82.3515 11.7599 82.2728 11.5478C82.1941 11.3356 82.0609 11.148 81.8866 11.0036L73.9792 4.45445C73.7498 4.26234 73.4602 4.15681 73.1608 4.15625C73.0062 4.15647 72.8529 4.18429 72.708 4.2384Z" fill="#E6E6E6"/>
<path d="M88.5912 40.8638C90.5114 40.8638 92.068 39.3081 92.068 37.3889C92.068 35.4698 90.5114 33.9141 88.5912 33.9141C86.6711 33.9141 85.1145 35.4698 85.1145 37.3889C85.1145 39.3081 86.6711 40.8638 88.5912 40.8638Z" fill="#E6E6E6"/>
<path d="M88.5913 36.5187C89.8714 36.5187 90.9091 36.1297 90.9091 35.65C90.9091 35.1702 89.8714 34.7812 88.5913 34.7812C87.3112 34.7812 86.2734 35.1702 86.2734 35.65C86.2734 36.1297 87.3112 36.5187 88.5913 36.5187Z" fill="#3F3D56"/>
<path d="M88.7361 44.918C88.5268 44.918 88.3196 44.8768 88.1263 44.7967C87.933 44.7167 87.7573 44.5994 87.6093 44.4515C87.4613 44.3036 87.344 44.128 87.2639 43.9348C87.1838 43.7416 87.1426 43.5345 87.1426 43.3253V39.4161H90.3296V43.3253C90.3296 43.5345 90.2884 43.7416 90.2083 43.9348C90.1282 44.128 90.0108 44.3036 89.8629 44.4515C89.7149 44.5994 89.5392 44.7167 89.3459 44.7967C89.1526 44.8768 88.9454 44.918 88.7361 44.918Z" fill="#FF6584"/>
<path d="M88.3977 0C88.5648 0.346377 88.7271 0.6965 88.8797 1.05378C90.6778 5.24497 91.2841 9.85068 90.6321 14.3641C90.3059 13.8911 89.9631 13.3982 89.6144 12.9C90.3612 8.56826 89.9412 4.11594 88.3977 0Z" fill="#3F3D56"/>
<path d="M85.79 3.1875C85.9572 3.53388 86.1194 3.884 86.272 4.24128C88.0701 8.43246 88.6765 13.0382 88.0244 17.5516C87.6982 17.0786 87.3554 16.5857 87.0067 16.0875C87.7535 11.7558 87.3336 7.30344 85.79 3.1875Z" fill="#3F3D56"/>
<path d="M77.7508 15.0447L78.1181 10.3756L78.4854 5.70658C78.5053 5.45448 78.5912 5.21204 78.7344 5.00362C78.8777 4.79521 79.0734 4.62816 79.3018 4.51928C79.5301 4.4104 79.7831 4.36352 80.0354 4.38334C80.2876 4.40317 80.5302 4.489 80.7387 4.63222L84.6007 7.2847L87.4209 9.22162C87.6011 9.0107 87.825 8.84134 88.077 8.72521C88.329 8.60908 88.6033 8.54895 88.8808 8.54895C89.1583 8.54895 89.4325 8.60908 89.6846 8.72521C89.9366 8.84134 90.1605 9.0107 90.3407 9.22162L93.1609 7.2847L97.0229 4.63222C97.2314 4.489 97.474 4.40317 97.7262 4.38334C97.9784 4.36352 98.2315 4.4104 98.4598 4.51928C98.6882 4.62816 98.8838 4.79521 99.0271 5.00362C99.1704 5.21204 99.2563 5.45448 99.2761 5.70658L99.6435 10.3756L100.011 15.0447C100.031 15.2968 99.9837 15.5496 99.8748 15.7779C99.7658 16.0061 99.5987 16.2017 99.3902 16.3449C99.1817 16.4881 98.9391 16.5739 98.6869 16.5938C98.4346 16.6136 98.1816 16.5667 97.9533 16.4578L93.7239 14.4412L90.2488 12.7843C90.07 12.9654 89.857 13.1092 89.6222 13.2073C89.3873 13.3054 89.1353 13.356 88.8808 13.356C88.6262 13.356 88.3742 13.3054 88.1394 13.2073C87.9045 13.1092 87.6915 12.9654 87.5127 12.7843L84.0376 14.4412L79.8083 16.4578C79.58 16.5667 79.3269 16.6136 79.0747 16.5938C78.8225 16.574 78.5799 16.4881 78.3714 16.3449C78.1628 16.2017 77.9957 16.0061 77.8868 15.7779C77.7778 15.5496 77.7309 15.2968 77.7508 15.0447Z" fill="white"/>
<path d="M92.3577 33.6247C92.3577 34.1045 92.7468 33.6247 93.2269 33.6247C93.7069 33.6247 94.096 34.1045 94.096 33.6247C94.0956 33.3946 94.0038 33.1741 93.8408 33.0116C93.6779 32.8491 93.4571 32.7578 93.2269 32.7578C92.9967 32.7578 92.7758 32.8491 92.6129 33.0116C92.4499 33.1741 92.3581 33.3946 92.3577 33.6247Z" fill="#E6E6E6"/>
<path d="M84.8248 33.6247C84.8248 34.1045 84.4357 33.6247 83.9556 33.6247C83.4756 33.6247 83.0864 34.1045 83.0864 33.6247C83.0869 33.3946 83.1787 33.1741 83.3416 33.0116C83.5046 32.8491 83.7254 32.7578 83.9556 32.7578C84.1858 32.7578 84.4066 32.8491 84.5696 33.0116C84.7325 33.1741 84.8243 33.3946 84.8248 33.6247Z" fill="#E6E6E6"/>
<path d="M181.258 99.2134V93.6914H153.633V94.0367V99.2134V143.734V149.256H159.158H181.258V143.734H159.158V99.2134H181.258Z" fill="#3F3D56"/>
<path d="M194.725 93.6914V149.256H222.349V93.6914H194.725ZM216.824 143.734H200.249V99.2134H216.824V143.734Z" fill="white"/>
<path d="M118.067 143.736V94.0391H112.542V143.736V149.258H118.067H140.166V143.736H118.067Z" fill="white"/>
<path d="M100.111 99.2134V93.6914H72.4866V94.0367V99.2134V118.54V124.062V143.734V149.256H78.0115H100.111V143.734H78.0115V124.062H100.111V118.54H78.0115V99.2134H100.111Z" fill="#3F3D56"/>
<path d="M316.272 99.2134V93.6914H288.647V94.0367V99.2134V118.54V124.062V143.734V149.256H294.172H316.272V143.734H294.172V124.062H316.272V118.54H294.172V99.2134H316.272Z" fill="white"/>
<path d="M53.8399 94.0397V139.677L39.2726 125.118L39.2395 125.152L39.2086 125.121L24.3165 140.005V93.8672H18.7915V149.087H24.3165V147.814L39.2421 132.896L53.8399 147.487V149.259H59.3649V94.0397H53.8399Z" fill="#3F3D56"/>
<path d="M270.346 94.0397V95.3118L255.421 110.229L240.823 95.6394V93.8672H235.298V149.087H240.823V103.449L255.39 118.008L255.423 117.975L255.454 118.005L270.346 103.121V149.259H275.871V94.0397H270.346Z" fill="#3F3D56"/>
<path d="M126.255 60.0209C128.128 60.0209 129.646 58.5034 129.646 56.6315C129.646 54.7597 128.128 53.2422 126.255 53.2422C124.382 53.2422 122.864 54.7597 122.864 56.6315C122.864 58.5034 124.382 60.0209 126.255 60.0209Z" fill="white"/>
<path d="M42.6063 97.681C44.4791 97.681 45.9974 96.1636 45.9974 94.2917C45.9974 92.4198 44.4791 90.9023 42.6063 90.9023C40.7334 90.9023 39.2151 92.4198 39.2151 94.2917C39.2151 96.1636 40.7334 97.681 42.6063 97.681Z" fill="white"/>
<path d="M109.676 173.001C111.549 173.001 113.067 171.484 113.067 169.612C113.067 167.74 111.549 166.223 109.676 166.223C107.803 166.223 106.285 167.74 106.285 169.612C106.285 171.484 107.803 173.001 109.676 173.001Z" fill="white"/>
<path d="M194.832 70.1889C196.705 70.1889 198.223 68.6714 198.223 66.7995C198.223 64.9276 196.705 63.4102 194.832 63.4102C192.959 63.4102 191.441 64.9276 191.441 66.7995C191.441 68.6714 192.959 70.1889 194.832 70.1889Z" fill="white"/>
<path d="M294.683 169.986C296.556 169.986 298.074 168.468 298.074 166.596C298.074 164.724 296.556 163.207 294.683 163.207C292.81 163.207 291.292 164.724 291.292 166.596C291.292 168.468 292.81 169.986 294.683 169.986Z" fill="white"/>
<path d="M298.074 81.1107C299.947 81.1107 301.465 79.5933 301.465 77.7214C301.465 75.8495 299.947 74.332 298.074 74.332C296.201 74.332 294.683 75.8495 294.683 77.7214C294.683 79.5933 296.201 81.1107 298.074 81.1107Z" fill="white"/>
<path d="M255.119 142.119C256.992 142.119 258.51 140.601 258.51 138.729C258.51 136.857 256.992 135.34 255.119 135.34C253.246 135.34 251.728 136.857 251.728 138.729C251.728 140.601 253.246 142.119 255.119 142.119Z" fill="white"/>
</g>
<defs>
<clipPath id="clip0">
<rect width="335" height="173" fill="white"/>
</clipPath>
</defs>
</svg>
